<svg width="320" height="320" viewBox="0 0 320 320" xmlns="http://www.w3.org/2000/svg" shape-rendering="crispEdges"><rect width="100%" height="100%" fill="none" /><rect width="10" height="10" x="140" y="230" fill="#62616d" /><rect width="20" height="10" x="130" y="240" fill="#62616d" /><rect width="10" height="10" x="140" y="250" fill="#62616d" /><rect width="10" height="10" x="180" y="250" fill="#62616d" /><rect width="10" height="10" x="140" y="260" fill="#62616d" /><rect width="10" height="10" x="170" y="260" fill="#62616d" /><rect width="10" height="10" x="160" y="270" fill="#62616d" /><rect width="10" height="10" x="150" y="280" fill="#62616d" /><rect width="20" height="10" x="180" y="280" fill="#62616d" /><rect width="10" height="10" x="140" y="290" fill="#62616d" /><rect width="10" height="10" x="170" y="290" fill="#62616d" /><rect width="10" height="10" x="190" y="290" fill="#62616d" /><rect width="10" height="10" x="170" y="300" fill="#62616d" /><rect width="10" height="10" x="190" y="300" fill="#62616d" /></svg>