<svg width="320" height="320" viewBox="0 0 320 320" xmlns="http://www.w3.org/2000/svg" shape-rendering="crispEdges"><rect width="100%" height="100%" fill="none" /><rect width="70" height="10" x="130" y="230" fill="#604666" /><rect width="10" height="10" x="120" y="240" fill="#604666" /><rect width="10" height="10" x="200" y="240" fill="#604666" /><rect width="10" height="10" x="120" y="250" fill="#604666" /><rect width="20" height="10" x="140" y="250" fill="#604666" /><rect width="20" height="10" x="170" y="250" fill="#604666" /><rect width="10" height="10" x="200" y="250" fill="#604666" /><rect width="10" height="10" x="120" y="260" fill="#604666" /><rect width="10" height="10" x="140" y="260" fill="#604666" /><rect width="10" height="10" x="170" y="260" fill="#604666" /><rect width="10" height="10" x="200" y="260" fill="#604666" /><rect width="10" height="10" x="120" y="270" fill="#604666" /><rect width="20" height="10" x="140" y="270" fill="#604666" /><rect width="20" height="10" x="170" y="270" fill="#604666" /><rect width="10" height="10" x="200" y="270" fill="#604666" /><rect width="10" height="10" x="120" y="280" fill="#604666" /><rect width="10" height="10" x="200" y="280" fill="#604666" /><rect width="70" height="10" x="130" y="290" fill="#604666" /></svg>