<svg width="320" height="320" viewBox="0 0 320 320" xmlns="http://www.w3.org/2000/svg" shape-rendering="crispEdges"><rect width="100%" height="100%" fill="none" /><rect width="10" height="10" x="190" y="240" fill="#4bea69" /><rect width="10" height="10" x="160" y="250" fill="#26b1f3" /><rect width="10" height="10" x="180" y="250" fill="#4bea69" /><rect width="10" height="10" x="200" y="250" fill="#4bea69" /><rect width="10" height="10" x="140" y="260" fill="#26b1f3" /><rect width="10" height="10" x="160" y="260" fill="#26b1f3" /><rect width="30" height="10" x="180" y="260" fill="#4bea69" /><rect width="10" height="10" x="120" y="270" fill="#26b1f3" /><rect width="10" height="10" x="140" y="270" fill="#26b1f3" /><rect width="10" height="10" x="160" y="270" fill="#26b1f3" /><rect width="10" height="10" x="180" y="270" fill="#4bea69" /><rect width="10" height="10" x="120" y="280" fill="#26b1f3" /><rect width="10" height="10" x="140" y="280" fill="#26b1f3" /><rect width="10" height="10" x="160" y="280" fill="#26b1f3" /><rect width="10" height="10" x="190" y="280" fill="#4bea69" /><rect width="10" height="10" x="130" y="290" fill="#26b1f3" /><rect width="10" height="10" x="150" y="290" fill="#26b1f3" /></svg>