<svg width="320" height="320" viewBox="0 0 320 320" xmlns="http://www.w3.org/2000/svg" shape-rendering="crispEdges"><rect width="100%" height="100%" fill="none" /><rect width="140" height="10" x="90" y="210" fill="#ffd067" /><rect width="50" height="10" x="90" y="220" fill="#ffd067" /><rect width="80" height="10" x="150" y="220" fill="#ffd067" /><rect width="10" height="10" x="90" y="230" fill="#ffd067" /><rect width="10" height="10" x="120" y="230" fill="#ffd067" /><rect width="20" height="10" x="150" y="230" fill="#ffd067" /><rect width="10" height="10" x="190" y="230" fill="#ffd067" /><rect width="20" height="10" x="210" y="230" fill="#ffd067" /><rect width="10" height="10" x="90" y="240" fill="#ffd067" /><rect width="10" height="10" x="150" y="240" fill="#ffd067" /><rect width="10" height="10" x="210" y="240" fill="#ffd067" /><rect width="10" height="10" x="150" y="250" fill="#ffd067" /><rect width="10" height="10" x="190" y="250" fill="#ffd067" /><rect width="10" height="10" x="210" y="250" fill="#ffd067" /><rect width="10" height="10" x="90" y="260" fill="#ffd067" /><rect width="10" height="10" x="210" y="260" fill="#ffd067" /><rect width="10" height="10" x="150" y="270" fill="#ffd067" /><rect width="10" height="10" x="150" y="280" fill="#ffd067" /></svg>