<svg width="320" height="320" viewBox="0 0 320 320" xmlns="http://www.w3.org/2000/svg" shape-rendering="crispEdges"><rect width="100%" height="100%" fill="none" /><rect width="10" height="10" x="90" y="210" fill="#fff0ee" /><rect width="10" height="10" x="130" y="210" fill="#fff0ee" /><rect width="10" height="10" x="170" y="210" fill="#fff0ee" /><rect width="10" height="10" x="210" y="210" fill="#fff0ee" /><rect width="10" height="10" x="100" y="220" fill="#fff0ee" /><rect width="10" height="10" x="120" y="220" fill="#fff0ee" /><rect width="10" height="10" x="180" y="220" fill="#fff0ee" /><rect width="10" height="10" x="200" y="220" fill="#fff0ee" /><rect width="10" height="10" x="100" y="230" fill="#fff0ee" /><rect width="10" height="10" x="120" y="230" fill="#fff0ee" /><rect width="10" height="10" x="180" y="230" fill="#fff0ee" /><rect width="10" height="10" x="200" y="230" fill="#fff0ee" /><rect width="10" height="10" x="90" y="240" fill="#fff0ee" /><rect width="10" height="10" x="130" y="240" fill="#fff0ee" /><rect width="10" height="10" x="170" y="240" fill="#fff0ee" /><rect width="10" height="10" x="210" y="240" fill="#fff0ee" /><rect width="10" height="10" x="140" y="250" fill="#fff0ee" /><rect width="10" height="10" x="160" y="250" fill="#fff0ee" /><rect width="10" height="10" x="220" y="250" fill="#fff0ee" /><rect width="10" height="10" x="140" y="260" fill="#fff0ee" /><rect width="10" height="10" x="160" y="260" fill="#fff0ee" /><rect width="10" height="10" x="220" y="260" fill="#fff0ee" /><rect width="10" height="10" x="90" y="270" fill="#fff0ee" /><rect width="10" height="10" x="130" y="270" fill="#fff0ee" /><rect width="10" height="10" x="170" y="270" fill="#fff0ee" /><rect width="10" height="10" x="210" y="270" fill="#fff0ee" /><rect width="10" height="10" x="100" y="280" fill="#fff0ee" /><rect width="10" height="10" x="120" y="280" fill="#fff0ee" /><rect width="10" height="10" x="180" y="280" fill="#fff0ee" /><rect width="10" height="10" x="200" y="280" fill="#fff0ee" /><rect width="10" height="10" x="100" y="290" fill="#fff0ee" /><rect width="10" height="10" x="120" y="290" fill="#fff0ee" /><rect width="10" height="10" x="180" y="290" fill="#fff0ee" /><rect width="10" height="10" x="200" y="290" fill="#fff0ee" /><rect width="10" height="10" x="90" y="300" fill="#fff0ee" /><rect width="10" height="10" x="130" y="300" fill="#fff0ee" /><rect width="10" height="10" x="170" y="300" fill="#fff0ee" /><rect width="10" height="10" x="210" y="300" fill="#fff0ee" /><rect width="10" height="10" x="140" y="310" fill="#fff0ee" /><rect width="10" height="10" x="160" y="310" fill="#fff0ee" /><rect width="10" height="10" x="220" y="310" fill="#fff0ee" /></svg>