<svg width="320" height="320" viewBox="0 0 320 320" xmlns="http://www.w3.org/2000/svg" shape-rendering="crispEdges"><rect width="100%" height="100%" fill="none" /><rect width="30" height="10" x="90" y="210" fill="#f9f4e6" /><rect width="70" height="10" x="130" y="210" fill="#f9f4e6" /><rect width="20" height="10" x="210" y="210" fill="#f9f4e6" /><rect width="20" height="10" x="90" y="220" fill="#f9f4e6" /><rect width="50" height="10" x="140" y="220" fill="#f9f4e6" /><rect width="10" height="10" x="220" y="220" fill="#f9f4e6" /><rect width="10" height="10" x="90" y="230" fill="#f9f4e6" /><rect width="30" height="10" x="150" y="230" fill="#f9f4e6" /><rect width="10" height="10" x="160" y="240" fill="#f9f4e6" /><rect width="20" height="10" x="90" y="250" fill="#f9f4e6" /><rect width="40" height="10" x="120" y="250" fill="#f9f4e6" /><rect width="60" height="10" x="170" y="250" fill="#f9f4e6" /><rect width="10" height="10" x="100" y="260" fill="#f9f4e6" /><rect width="30" height="10" x="120" y="260" fill="#f9f4e6" /><rect width="50" height="10" x="180" y="260" fill="#f9f4e6" /><rect width="20" height="10" x="120" y="270" fill="#f9f4e6" /><rect width="30" height="10" x="190" y="270" fill="#f9f4e6" /><rect width="10" height="10" x="120" y="280" fill="#f9f4e6" /><rect width="10" height="10" x="200" y="280" fill="#f9f4e6" /><rect width="20" height="10" x="90" y="290" fill="#f9f4e6" /><rect width="70" height="10" x="130" y="290" fill="#f9f4e6" /><rect width="20" height="10" x="210" y="290" fill="#f9f4e6" /><rect width="20" height="10" x="90" y="300" fill="#f9f4e6" /><rect width="50" height="10" x="140" y="300" fill="#f9f4e6" /><rect width="10" height="10" x="220" y="300" fill="#f9f4e6" /><rect width="10" height="10" x="90" y="310" fill="#f9f4e6" /><rect width="30" height="10" x="150" y="310" fill="#f9f4e6" /></svg>