<svg width="320" height="320" viewBox="0 0 320 320" xmlns="http://www.w3.org/2000/svg" shape-rendering="crispEdges"><rect width="100%" height="100%" fill="none" /><rect width="140" height="10" x="90" y="210" fill="#667af9" /><rect width="10" height="10" x="90" y="220" fill="#667af9" /><rect width="10" height="10" x="100" y="220" fill="#648df9" /><rect width="10" height="10" x="110" y="220" fill="#667af9" /><rect width="10" height="10" x="120" y="220" fill="#648df9" /><rect width="10" height="10" x="130" y="220" fill="#667af9" /><rect width="10" height="10" x="140" y="220" fill="#648df9" /><rect width="10" height="10" x="150" y="220" fill="#667af9" /><rect width="10" height="10" x="160" y="220" fill="#648df9" /><rect width="10" height="10" x="170" y="220" fill="#667af9" /><rect width="10" height="10" x="180" y="220" fill="#648df9" /><rect width="10" height="10" x="190" y="220" fill="#667af9" /><rect width="10" height="10" x="200" y="220" fill="#648df9" /><rect width="10" height="10" x="210" y="220" fill="#667af9" /><rect width="10" height="10" x="220" y="220" fill="#648df9" /><rect width="140" height="10" x="90" y="230" fill="#648df9" /><rect width="10" height="10" x="90" y="240" fill="#648df9" /><rect width="10" height="10" x="100" y="240" fill="#63a0f9" /><rect width="10" height="10" x="110" y="240" fill="#648df9" /><rect width="10" height="10" x="120" y="240" fill="#63a0f9" /><rect width="10" height="10" x="130" y="240" fill="#648df9" /><rect width="10" height="10" x="140" y="240" fill="#63a0f9" /><rect width="10" height="10" x="150" y="240" fill="#648df9" /><rect width="10" height="10" x="160" y="240" fill="#63a0f9" /><rect width="10" height="10" x="170" y="240" fill="#648df9" /><rect width="10" height="10" x="180" y="240" fill="#63a0f9" /><rect width="10" height="10" x="190" y="240" fill="#648df9" /><rect width="10" height="10" x="200" y="240" fill="#63a0f9" /><rect width="10" height="10" x="210" y="240" fill="#648df9" /><rect width="10" height="10" x="220" y="240" fill="#63a0f9" /><rect width="20" height="10" x="90" y="250" fill="#63a0f9" /><rect width="110" height="10" x="120" y="250" fill="#63a0f9" /><rect width="20" height="10" x="90" y="260" fill="#63a0f9" /><rect width="110" height="10" x="120" y="260" fill="#63a0f9" /><rect width="20" height="10" x="90" y="270" fill="#63a0f9" /><rect width="110" height="10" x="120" y="270" fill="#63a0f9" /><rect width="10" height="10" x="90" y="280" fill="#63a0f9" /><rect width="10" height="10" x="100" y="280" fill="#7cc4f2" /><rect width="10" height="10" x="120" y="280" fill="#7cc4f2" /><rect width="10" height="10" x="130" y="280" fill="#63a0f9" /><rect width="10" height="10" x="140" y="280" fill="#7cc4f2" /><rect width="10" height="10" x="150" y="280" fill="#63a0f9" /><rect width="10" height="10" x="160" y="280" fill="#7cc4f2" /><rect width="10" height="10" x="170" y="280" fill="#63a0f9" /><rect width="10" height="10" x="180" y="280" fill="#7cc4f2" /><rect width="10" height="10" x="190" y="280" fill="#63a0f9" /><rect width="10" height="10" x="200" y="280" fill="#7cc4f2" /><rect width="10" height="10" x="210" y="280" fill="#63a0f9" /><rect width="10" height="10" x="220" y="280" fill="#7cc4f2" /><rect width="20" height="10" x="90" y="290" fill="#7cc4f2" /><rect width="110" height="10" x="120" y="290" fill="#7cc4f2" /><rect width="10" height="10" x="90" y="300" fill="#7cc4f2" /><rect width="10" height="10" x="100" y="300" fill="#97f2fb" /><rect width="10" height="10" x="120" y="300" fill="#97f2fb" /><rect width="10" height="10" x="130" y="300" fill="#7cc4f2" /><rect width="10" height="10" x="140" y="300" fill="#97f2fb" /><rect width="10" height="10" x="150" y="300" fill="#7cc4f2" /><rect width="10" height="10" x="160" y="300" fill="#97f2fb" /><rect width="10" height="10" x="170" y="300" fill="#7cc4f2" /><rect width="10" height="10" x="180" y="300" fill="#97f2fb" /><rect width="10" height="10" x="190" y="300" fill="#7cc4f2" /><rect width="10" height="10" x="200" y="300" fill="#97f2fb" /><rect width="10" height="10" x="210" y="300" fill="#7cc4f2" /><rect width="10" height="10" x="220" y="300" fill="#97f2fb" /><rect width="20" height="10" x="90" y="310" fill="#97f2fb" /><rect width="110" height="10" x="120" y="310" fill="#97f2fb" /></svg>