<svg width="320" height="320" viewBox="0 0 320 320" xmlns="http://www.w3.org/2000/svg" shape-rendering="crispEdges"><rect width="100%" height="100%" fill="none" /><rect width="30" height="10" x="130" y="210" fill="#e5e5de" /><rect width="30" height="10" x="170" y="210" fill="#e5e5de" /><rect width="20" height="10" x="210" y="210" fill="#e5e5de" /><rect width="30" height="10" x="90" y="220" fill="#e5e5de" /><rect width="30" height="10" x="130" y="220" fill="#e5e5de" /><rect width="30" height="10" x="170" y="220" fill="#e5e5de" /><rect width="30" height="10" x="90" y="230" fill="#e5e5de" /><rect width="30" height="10" x="130" y="230" fill="#e5e5de" /><rect width="30" height="10" x="90" y="240" fill="#e5e5de" /><rect width="30" height="10" x="190" y="240" fill="#e5e5de" /><rect width="30" height="10" x="150" y="250" fill="#e5e5de" /><rect width="30" height="10" x="190" y="250" fill="#e5e5de" /><rect width="20" height="10" x="120" y="260" fill="#e5e5de" /><rect width="30" height="10" x="150" y="260" fill="#e5e5de" /><rect width="30" height="10" x="190" y="260" fill="#e5e5de" /><rect width="10" height="10" x="90" y="270" fill="#e5e5de" /><rect width="20" height="10" x="120" y="270" fill="#e5e5de" /><rect width="30" height="10" x="150" y="270" fill="#e5e5de" /><rect width="10" height="10" x="90" y="280" fill="#e5e5de" /><rect width="20" height="10" x="120" y="280" fill="#e5e5de" /><rect width="20" height="10" x="210" y="280" fill="#e5e5de" /><rect width="10" height="10" x="90" y="290" fill="#e5e5de" /><rect width="30" height="10" x="170" y="290" fill="#e5e5de" /><rect width="20" height="10" x="210" y="290" fill="#e5e5de" /><rect width="30" height="10" x="130" y="300" fill="#e5e5de" /><rect width="30" height="10" x="170" y="300" fill="#e5e5de" /><rect width="20" height="10" x="210" y="300" fill="#e5e5de" /><rect width="20" height="10" x="90" y="310" fill="#e5e5de" /><rect width="30" height="10" x="130" y="310" fill="#e5e5de" /><rect width="30" height="10" x="170" y="310" fill="#e5e5de" /></svg>