<svg width="320" height="320" viewBox="0 0 320 320" xmlns="http://www.w3.org/2000/svg" shape-rendering="crispEdges"><rect width="100%" height="100%" fill="none" /><rect width="10" height="10" x="90" y="220" fill="#fff0be" /><rect width="10" height="10" x="110" y="220" fill="#fff0be" /><rect width="10" height="10" x="130" y="220" fill="#fff0be" /><rect width="10" height="10" x="150" y="220" fill="#fff0be" /><rect width="10" height="10" x="170" y="220" fill="#fff0be" /><rect width="10" height="10" x="190" y="220" fill="#fff0be" /><rect width="10" height="10" x="210" y="220" fill="#fff0be" /><rect width="10" height="10" x="100" y="240" fill="#fff0be" /><rect width="10" height="10" x="120" y="240" fill="#fff0be" /><rect width="10" height="10" x="140" y="240" fill="#fff0be" /><rect width="10" height="10" x="160" y="240" fill="#fff0be" /><rect width="10" height="10" x="180" y="240" fill="#fff0be" /><rect width="10" height="10" x="200" y="240" fill="#fff0be" /><rect width="10" height="10" x="220" y="240" fill="#fff0be" /><rect width="10" height="10" x="90" y="260" fill="#fff0be" /><rect width="10" height="10" x="130" y="260" fill="#fff0be" /><rect width="10" height="10" x="150" y="260" fill="#fff0be" /><rect width="10" height="10" x="170" y="260" fill="#fff0be" /><rect width="10" height="10" x="190" y="260" fill="#fff0be" /><rect width="10" height="10" x="210" y="260" fill="#fff0be" /><rect width="10" height="10" x="100" y="280" fill="#fff0be" /><rect width="10" height="10" x="120" y="280" fill="#fff0be" /><rect width="10" height="10" x="140" y="280" fill="#fff0be" /><rect width="10" height="10" x="160" y="280" fill="#fff0be" /><rect width="10" height="10" x="180" y="280" fill="#fff0be" /><rect width="10" height="10" x="200" y="280" fill="#fff0be" /><rect width="10" height="10" x="220" y="280" fill="#fff0be" /><rect width="10" height="10" x="90" y="300" fill="#fff0be" /><rect width="10" height="10" x="130" y="300" fill="#fff0be" /><rect width="10" height="10" x="150" y="300" fill="#fff0be" /><rect width="10" height="10" x="170" y="300" fill="#fff0be" /><rect width="10" height="10" x="190" y="300" fill="#fff0be" /><rect width="10" height="10" x="210" y="300" fill="#fff0be" /></svg>