<svg width="320" height="320" viewBox="0 0 320 320" xmlns="http://www.w3.org/2000/svg" shape-rendering="crispEdges"><rect width="100%" height="100%" fill="none" /><rect width="30" height="10" x="160" y="220" fill="#000000" /><rect width="70" height="10" x="140" y="230" fill="#000000" /><rect width="70" height="10" x="140" y="240" fill="#000000" /><rect width="30" height="10" x="130" y="250" fill="#000000" /><rect width="30" height="10" x="160" y="250" fill="#ffffff" /><rect width="30" height="10" x="190" y="250" fill="#000000" /><rect width="30" height="10" x="130" y="260" fill="#000000" /><rect width="10" height="10" x="160" y="260" fill="#ffffff" /><rect width="10" height="10" x="180" y="260" fill="#ffffff" /><rect width="30" height="10" x="190" y="260" fill="#000000" /><rect width="30" height="10" x="130" y="270" fill="#000000" /><rect width="30" height="10" x="160" y="270" fill="#ffffff" /><rect width="30" height="10" x="190" y="270" fill="#000000" /><rect width="70" height="10" x="140" y="280" fill="#000000" /><rect width="70" height="10" x="140" y="290" fill="#000000" /><rect width="30" height="10" x="160" y="300" fill="#000000" /></svg>