<svg width="320" height="320" viewBox="0 0 320 320" xmlns="http://www.w3.org/2000/svg" shape-rendering="crispEdges"><rect width="100%" height="100%" fill="none" /><rect width="50" height="10" x="140" y="230" fill="#f8d689" /><rect width="10" height="10" x="140" y="240" fill="#f8d689" /><rect width="10" height="10" x="160" y="240" fill="#f8d689" /><rect width="10" height="10" x="180" y="240" fill="#f8d689" /><rect width="10" height="10" x="150" y="250" fill="#f8d689" /><rect width="10" height="10" x="170" y="250" fill="#f8d689" /><rect width="10" height="10" x="140" y="260" fill="#f8d689" /><rect width="10" height="10" x="160" y="260" fill="#f8d689" /><rect width="10" height="10" x="180" y="260" fill="#f8d689" /><rect width="10" height="10" x="150" y="270" fill="#f8d689" /><rect width="10" height="10" x="170" y="270" fill="#f8d689" /><rect width="30" height="10" x="140" y="280" fill="#f8d689" /><rect width="10" height="10" x="180" y="280" fill="#f8d689" /><rect width="10" height="10" x="140" y="290" fill="#f8d689" /><rect width="30" height="10" x="160" y="290" fill="#f8d689" /></svg>