<svg width="320" height="320" viewBox="0 0 320 320" xmlns="http://www.w3.org/2000/svg" shape-rendering="crispEdges"><rect width="100%" height="100%" fill="none" /><rect width="140" height="10" x="90" y="210" fill="#5d6061" /><rect width="140" height="10" x="90" y="220" fill="#5d6061" /><rect width="40" height="10" x="90" y="230" fill="#5d6061" /><rect width="70" height="10" x="130" y="230" fill="#d8dadf" /><rect width="30" height="10" x="200" y="230" fill="#5d6061" /><rect width="140" height="10" x="90" y="240" fill="#5d6061" /><rect width="20" height="10" x="90" y="250" fill="#76858b" /><rect width="20" height="10" x="120" y="250" fill="#5d6061" /><rect width="30" height="10" x="140" y="250" fill="#d8dadf" /><rect width="20" height="10" x="170" y="250" fill="#5d6061" /><rect width="10" height="10" x="190" y="250" fill="#d8dadf" /><rect width="30" height="10" x="200" y="250" fill="#5d6061" /><rect width="20" height="10" x="90" y="260" fill="#5d6061" /><rect width="10" height="10" x="120" y="260" fill="#5d6061" /><rect width="10" height="10" x="130" y="260" fill="#d8dadf" /><rect width="30" height="10" x="140" y="260" fill="#5d6061" /><rect width="20" height="10" x="170" y="260" fill="#d8dadf" /><rect width="40" height="10" x="190" y="260" fill="#5d6061" /><rect width="20" height="10" x="90" y="270" fill="#76858b" /><rect width="30" height="10" x="120" y="270" fill="#5d6061" /><rect width="10" height="10" x="150" y="270" fill="#d8dadf" /><rect width="70" height="10" x="160" y="270" fill="#5d6061" /><rect width="20" height="10" x="90" y="280" fill="#5d6061" /><rect width="10" height="10" x="120" y="280" fill="#5d6061" /><rect width="20" height="10" x="130" y="280" fill="#d8dadf" /><rect width="10" height="10" x="150" y="280" fill="#5d6061" /><rect width="40" height="10" x="160" y="280" fill="#d8dadf" /><rect width="30" height="10" x="200" y="280" fill="#5d6061" /><rect width="20" height="10" x="90" y="290" fill="#76858b" /><rect width="110" height="10" x="120" y="290" fill="#5d6061" /><rect width="20" height="10" x="90" y="300" fill="#5d6061" /><rect width="10" height="10" x="120" y="300" fill="#5d6061" /><rect width="70" height="10" x="130" y="300" fill="#d8dadf" /><rect width="30" height="10" x="200" y="300" fill="#5d6061" /><rect width="20" height="10" x="90" y="310" fill="#76858b" /><rect width="110" height="10" x="120" y="310" fill="#5d6061" /></svg>