<svg width="320" height="320" viewBox="0 0 320 320" xmlns="http://www.w3.org/2000/svg" shape-rendering="crispEdges"><rect width="100%" height="100%" fill="none" /><rect width="40" height="10" x="110" y="210" fill="#f98f30" /><rect width="50" height="10" x="180" y="210" fill="#f98f30" /><rect width="40" height="10" x="110" y="220" fill="#f98f30" /><rect width="50" height="10" x="180" y="220" fill="#f98f30" /><rect width="40" height="10" x="110" y="230" fill="#f98f30" /><rect width="50" height="10" x="180" y="230" fill="#f98f30" /><rect width="40" height="10" x="110" y="240" fill="#f98f30" /><rect width="50" height="10" x="180" y="240" fill="#f98f30" /><rect width="30" height="10" x="120" y="250" fill="#fdf8ff" /><rect width="50" height="10" x="180" y="250" fill="#fdf8ff" /><rect width="30" height="10" x="120" y="260" fill="#fdf8ff" /><rect width="50" height="10" x="180" y="260" fill="#fdf8ff" /><rect width="30" height="10" x="120" y="270" fill="#fdf8ff" /><rect width="50" height="10" x="180" y="270" fill="#fdf8ff" /><rect width="30" height="10" x="120" y="280" fill="#fdf8ff" /><rect width="50" height="10" x="180" y="280" fill="#fdf8ff" /><rect width="30" height="10" x="120" y="290" fill="#f98f30" /><rect width="50" height="10" x="180" y="290" fill="#f98f30" /><rect width="30" height="10" x="120" y="300" fill="#f98f30" /><rect width="50" height="10" x="180" y="300" fill="#f98f30" /><rect width="30" height="10" x="120" y="310" fill="#f98f30" /><rect width="50" height="10" x="180" y="310" fill="#f98f30" /></svg>