<svg width="320" height="320" viewBox="0 0 320 320" xmlns="http://www.w3.org/2000/svg" shape-rendering="crispEdges"><rect width="100%" height="100%" fill="none" /><rect width="30" height="10" x="120" y="210" fill="#4bea69" /><rect width="30" height="10" x="180" y="210" fill="#4bea69" /><rect width="30" height="10" x="120" y="220" fill="#4bea69" /><rect width="30" height="10" x="180" y="220" fill="#4bea69" /><rect width="30" height="10" x="120" y="230" fill="#4bea69" /><rect width="30" height="10" x="180" y="230" fill="#4bea69" /><rect width="30" height="10" x="120" y="240" fill="#000000" /><rect width="30" height="10" x="180" y="240" fill="#000000" /><rect width="30" height="10" x="120" y="250" fill="#000000" /><rect width="30" height="10" x="180" y="250" fill="#000000" /><rect width="30" height="10" x="120" y="260" fill="#000000" /><rect width="30" height="10" x="180" y="260" fill="#000000" /><rect width="30" height="10" x="120" y="270" fill="#4bea69" /><rect width="30" height="10" x="180" y="270" fill="#4bea69" /><rect width="30" height="10" x="120" y="280" fill="#4bea69" /><rect width="30" height="10" x="180" y="280" fill="#4bea69" /><rect width="30" height="10" x="120" y="290" fill="#4bea69" /><rect width="30" height="10" x="180" y="290" fill="#4bea69" /><rect width="30" height="10" x="120" y="300" fill="#000000" /><rect width="30" height="10" x="180" y="300" fill="#000000" /><rect width="30" height="10" x="120" y="310" fill="#000000" /><rect width="30" height="10" x="180" y="310" fill="#000000" /></svg>