<svg width="320" height="320" viewBox="0 0 320 320" xmlns="http://www.w3.org/2000/svg" shape-rendering="crispEdges"><rect width="100%" height="100%" fill="none" /><rect width="20" height="10" x="110" y="70" fill="#d56333" /><rect width="10" height="10" x="140" y="70" fill="#d56333" /><rect width="10" height="10" x="160" y="70" fill="#d56333" /><rect width="110" height="10" x="110" y="80" fill="#d56333" /><rect width="60" height="10" x="220" y="80" fill="#a86f60" /><rect width="10" height="10" x="70" y="90" fill="#d56333" /><rect width="20" height="10" x="120" y="90" fill="#d56333" /><rect width="40" height="10" x="140" y="90" fill="#000000" /><rect width="40" height="10" x="180" y="90" fill="#d56333" /><rect width="30" height="10" x="220" y="90" fill="#a86f60" /><rect width="10" height="10" x="250" y="90" fill="#000000" /><rect width="10" height="10" x="260" y="90" fill="#a86f60" /><rect width="10" height="10" x="270" y="90" fill="#000000" /><rect width="10" height="10" x="280" y="90" fill="#a86f60" /><rect width="140" height="10" x="80" y="100" fill="#d56333" /><rect width="30" height="10" x="220" y="100" fill="#a86f60" /><rect width="10" height="10" x="250" y="100" fill="#000000" /><rect width="10" height="10" x="260" y="100" fill="#a86f60" /><rect width="10" height="10" x="270" y="100" fill="#000000" /><rect width="10" height="10" x="280" y="100" fill="#a86f60" /><rect width="10" height="10" x="50" y="110" fill="#d56333" /><rect width="150" height="10" x="70" y="110" fill="#d56333" /><rect width="70" height="10" x="220" y="110" fill="#a86f60" /><rect width="160" height="10" x="60" y="120" fill="#d56333" /><rect width="70" height="10" x="220" y="120" fill="#a86f60" /><rect width="160" height="10" x="60" y="130" fill="#d56333" /><rect width="70" height="10" x="220" y="130" fill="#a86f60" /><rect width="170" height="10" x="50" y="140" fill="#d56333" /><rect width="70" height="10" x="220" y="140" fill="#a86f60" /><rect width="160" height="10" x="60" y="150" fill="#d56333" /><rect width="70" height="10" x="220" y="150" fill="#a86f60" /><rect width="160" height="10" x="60" y="160" fill="#d56333" /><rect width="10" height="10" x="220" y="160" fill="#a86f60" /><rect width="10" height="10" x="230" y="160" fill="#000000" /><rect width="20" height="10" x="240" y="160" fill="#ffffff" /><rect width="10" height="10" x="260" y="160" fill="#000000" /><rect width="20" height="10" x="270" y="160" fill="#ffffff" /><rect width="150" height="10" x="70" y="170" fill="#d56333" /><rect width="70" height="10" x="220" y="170" fill="#a86f60" /><rect width="10" height="10" x="60" y="180" fill="#d56333" /><rect width="170" height="10" x="80" y="180" fill="#d56333" /><rect width="10" height="10" x="90" y="190" fill="#d56333" /><rect width="60" height="10" x="120" y="190" fill="#d56333" /><rect width="20" height="10" x="190" y="190" fill="#d56333" /><rect width="20" height="10" x="220" y="190" fill="#d56333" /><rect width="10" height="10" x="100" y="200" fill="#d56333" /><rect width="10" height="10" x="130" y="200" fill="#d56333" /><rect width="10" height="10" x="190" y="200" fill="#d56333" /><rect width="10" height="10" x="220" y="200" fill="#d56333" /></svg>