<svg width="320" height="320" viewBox="0 0 320 320" xmlns="http://www.w3.org/2000/svg" shape-rendering="crispEdges"><rect width="100%" height="100%" fill="none" /><rect width="220" height="10" x="50" y="70" fill="#fffdf2" /><rect width="220" height="10" x="50" y="80" fill="#fffdf2" /><rect width="220" height="10" x="50" y="90" fill="#f38b7c" /><rect width="220" height="10" x="50" y="100" fill="#fffdf2" /><rect width="220" height="10" x="50" y="110" fill="#fffdf2" /><rect width="220" height="10" x="50" y="120" fill="#a3baed" /><rect width="220" height="10" x="50" y="130" fill="#fffdf2" /><rect width="220" height="10" x="50" y="140" fill="#fffdf2" /><rect width="220" height="10" x="50" y="150" fill="#a3baed" /><rect width="220" height="10" x="50" y="160" fill="#fffdf2" /><rect width="220" height="10" x="50" y="170" fill="#fffdf2" /><rect width="220" height="10" x="50" y="180" fill="#a3baed" /><rect width="220" height="10" x="50" y="190" fill="#fffdf2" /><rect width="220" height="10" x="50" y="200" fill="#fffdf2" /></svg>