<svg width="320" height="320" viewBox="0 0 320 320" xmlns="http://www.w3.org/2000/svg" shape-rendering="crispEdges"><rect width="100%" height="100%" fill="none" /><rect width="10" height="10" x="130" y="30" fill="#c5030e" /><rect width="10" height="10" x="150" y="30" fill="#c5030e" /><rect width="10" height="10" x="160" y="30" fill="#f3322c" /><rect width="10" height="10" x="180" y="30" fill="#c5030e" /><rect width="30" height="10" x="140" y="40" fill="#c5030e" /><rect width="10" height="10" x="170" y="40" fill="#f3322c" /><rect width="20" height="10" x="130" y="50" fill="#c5030e" /><rect width="10" height="10" x="150" y="50" fill="#f3322c" /><rect width="10" height="10" x="160" y="50" fill="#c5030e" /><rect width="10" height="10" x="170" y="50" fill="#f3322c" /><rect width="10" height="10" x="180" y="50" fill="#c5030e" /><rect width="10" height="10" x="120" y="60" fill="#c5030e" /><rect width="20" height="10" x="140" y="60" fill="#c5030e" /><rect width="20" height="10" x="160" y="60" fill="#f3322c" /><rect width="60" height="10" x="130" y="70" fill="#c5030e" /><rect width="100" height="10" x="110" y="80" fill="#c5030e" /><rect width="120" height="10" x="100" y="90" fill="#c5030e" /><rect width="140" height="10" x="90" y="100" fill="#c5030e" /><rect width="140" height="10" x="90" y="110" fill="#c5030e" /><rect width="160" height="10" x="80" y="120" fill="#c5030e" /><rect width="160" height="10" x="80" y="130" fill="#c5030e" /><rect width="160" height="10" x="80" y="140" fill="#c5030e" /><rect width="160" height="10" x="80" y="150" fill="#c5030e" /><rect width="160" height="10" x="80" y="160" fill="#c5030e" /><rect width="10" height="10" x="70" y="170" fill="#f3322c" /><rect width="10" height="10" x="80" y="170" fill="#c5030e" /><rect width="10" height="10" x="90" y="170" fill="#f3322c" /><rect width="10" height="10" x="100" y="170" fill="#c5030e" /><rect width="10" height="10" x="110" y="170" fill="#f3322c" /><rect width="10" height="10" x="120" y="170" fill="#c5030e" /><rect width="10" height="10" x="130" y="170" fill="#f3322c" /><rect width="10" height="10" x="140" y="170" fill="#c5030e" /><rect width="10" height="10" x="150" y="170" fill="#f3322c" /><rect width="10" height="10" x="160" y="170" fill="#c5030e" /><rect width="10" height="10" x="170" y="170" fill="#f3322c" /><rect width="10" height="10" x="180" y="170" fill="#c5030e" /><rect width="10" height="10" x="190" y="170" fill="#f3322c" /><rect width="10" height="10" x="200" y="170" fill="#c5030e" /><rect width="10" height="10" x="210" y="170" fill="#f3322c" /><rect width="10" height="10" x="220" y="170" fill="#c5030e" /><rect width="10" height="10" x="230" y="170" fill="#f3322c" /><rect width="10" height="10" x="240" y="170" fill="#c5030e" /><rect width="10" height="10" x="70" y="180" fill="#f3322c" /><rect width="10" height="10" x="80" y="180" fill="#c5030e" /><rect width="10" height="10" x="90" y="180" fill="#f3322c" /><rect width="10" height="10" x="100" y="180" fill="#c5030e" /><rect width="10" height="10" x="110" y="180" fill="#f3322c" /><rect width="10" height="10" x="120" y="180" fill="#c5030e" /><rect width="10" height="10" x="130" y="180" fill="#f3322c" /><rect width="10" height="10" x="140" y="180" fill="#c5030e" /><rect width="10" height="10" x="150" y="180" fill="#f3322c" /><rect width="10" height="10" x="160" y="180" fill="#c5030e" /><rect width="10" height="10" x="170" y="180" fill="#f3322c" /><rect width="10" height="10" x="180" y="180" fill="#c5030e" /><rect width="10" height="10" x="190" y="180" fill="#f3322c" /><rect width="10" height="10" x="200" y="180" fill="#000000" /><rect width="10" height="10" x="210" y="180" fill="#ffffff" /><rect width="10" height="10" x="220" y="180" fill="#000000" /><rect width="10" height="10" x="230" y="180" fill="#ffffff" /><rect width="10" height="10" x="240" y="180" fill="#c5030e" /><rect width="10" height="10" x="70" y="190" fill="#f3322c" /><rect width="10" height="10" x="80" y="190" fill="#c5030e" /><rect width="10" height="10" x="90" y="190" fill="#f3322c" /><rect width="10" height="10" x="100" y="190" fill="#c5030e" /><rect width="10" height="10" x="110" y="190" fill="#f3322c" /><rect width="10" height="10" x="120" y="190" fill="#c5030e" /><rect width="10" height="10" x="130" y="190" fill="#f3322c" /><rect width="10" height="10" x="140" y="190" fill="#c5030e" /><rect width="10" height="10" x="150" y="190" fill="#f3322c" /><rect width="10" height="10" x="160" y="190" fill="#c5030e" /><rect width="10" height="10" x="170" y="190" fill="#f3322c" /><rect width="10" height="10" x="180" y="190" fill="#c5030e" /><rect width="10" height="10" x="190" y="190" fill="#f3322c" /><rect width="40" height="10" x="200" y="190" fill="#000000" /><rect width="10" height="10" x="240" y="190" fill="#c5030e" /><rect width="10" height="10" x="70" y="200" fill="#f3322c" /><rect width="10" height="10" x="80" y="200" fill="#c5030e" /><rect width="10" height="10" x="90" y="200" fill="#f3322c" /><rect width="10" height="10" x="100" y="200" fill="#c5030e" /><rect width="10" height="10" x="110" y="200" fill="#f3322c" /><rect width="10" height="10" x="120" y="200" fill="#c5030e" /><rect width="10" height="10" x="130" y="200" fill="#f3322c" /><rect width="10" height="10" x="140" y="200" fill="#c5030e" /><rect width="10" height="10" x="150" y="200" fill="#f3322c" /><rect width="10" height="10" x="160" y="200" fill="#c5030e" /><rect width="10" height="10" x="170" y="200" fill="#f3322c" /><rect width="10" height="10" x="180" y="200" fill="#c5030e" /><rect width="10" height="10" x="190" y="200" fill="#f3322c" /><rect width="10" height="10" x="200" y="200" fill="#c5030e" /><rect width="10" height="10" x="210" y="200" fill="#f3322c" /><rect width="10" height="10" x="220" y="200" fill="#c5030e" /><rect width="10" height="10" x="230" y="200" fill="#f3322c" /><rect width="10" height="10" x="240" y="200" fill="#c5030e" /></svg>