<svg width="320" height="320" viewBox="0 0 320 320" xmlns="http://www.w3.org/2000/svg" shape-rendering="crispEdges"><rect width="100%" height="100%" fill="none" /><rect width="100" height="10" x="110" y="40" fill="#254efb" /><rect width="100" height="10" x="100" y="50" fill="#254efb" /><rect width="30" height="10" x="90" y="60" fill="#254efb" /><rect width="160" height="10" x="80" y="70" fill="#254efb" /><rect width="180" height="10" x="70" y="80" fill="#5a6b7b" /><rect width="150" height="10" x="60" y="90" fill="#5a6b7b" /><rect width="20" height="10" x="210" y="90" fill="#ffffff" /><rect width="30" height="10" x="230" y="90" fill="#5a6b7b" /><rect width="170" height="10" x="60" y="100" fill="#5a6b7b" /><rect width="10" height="10" x="230" y="100" fill="#ffffff" /><rect width="20" height="10" x="240" y="100" fill="#5a6b7b" /><rect width="220" height="10" x="50" y="110" fill="#5a6b7b" /><rect width="220" height="10" x="50" y="120" fill="#9cb4b8" /><rect width="220" height="10" x="50" y="130" fill="#9cb4b8" /><rect width="220" height="10" x="50" y="140" fill="#9cb4b8" /><rect width="220" height="10" x="50" y="150" fill="#9cb4b8" /><rect width="220" height="10" x="50" y="160" fill="#5a6b7b" /><rect width="200" height="10" x="60" y="170" fill="#5a6b7b" /><rect width="30" height="10" x="60" y="180" fill="#5a6b7b" /><rect width="10" height="10" x="90" y="180" fill="#000000" /><rect width="10" height="10" x="100" y="180" fill="#ffffff" /><rect width="10" height="10" x="110" y="180" fill="#000000" /><rect width="10" height="10" x="120" y="180" fill="#ffffff" /><rect width="10" height="10" x="130" y="180" fill="#000000" /><rect width="120" height="10" x="140" y="180" fill="#5a6b7b" /><rect width="180" height="10" x="70" y="190" fill="#5a6b7b" /><rect width="140" height="10" x="90" y="200" fill="#5a6b7b" /></svg>