<svg width="320" height="320" viewBox="0 0 320 320" xmlns="http://www.w3.org/2000/svg" shape-rendering="crispEdges"><rect width="100%" height="100%" fill="none" /><rect width="10" height="10" x="160" y="60" fill="#abaaa8" /><rect width="70" height="10" x="100" y="70" fill="#abaaa8" /><rect width="10" height="10" x="170" y="70" fill="#ffffff" /><rect width="50" height="10" x="180" y="70" fill="#abaaa8" /><rect width="60" height="10" x="130" y="80" fill="#757576" /><rect width="20" height="10" x="30" y="90" fill="#648df9" /><rect width="30" height="10" x="50" y="90" fill="#5a65fa" /><rect width="20" height="10" x="90" y="90" fill="#f78a18" /><rect width="100" height="10" x="110" y="90" fill="#ffb913" /><rect width="20" height="10" x="210" y="90" fill="#ffc925" /><rect width="20" height="10" x="30" y="100" fill="#648df9" /><rect width="30" height="10" x="50" y="100" fill="#5a65fa" /><rect width="20" height="10" x="90" y="100" fill="#f78a18" /><rect width="100" height="10" x="110" y="100" fill="#ffb913" /><rect width="20" height="10" x="210" y="100" fill="#ffc925" /><rect width="30" height="10" x="240" y="100" fill="#5a65fa" /><rect width="20" height="10" x="270" y="100" fill="#648df9" /><rect width="20" height="10" x="30" y="110" fill="#648df9" /><rect width="30" height="10" x="50" y="110" fill="#5a65fa" /><rect width="20" height="10" x="90" y="110" fill="#f78a18" /><rect width="100" height="10" x="110" y="110" fill="#ffb913" /><rect width="20" height="10" x="210" y="110" fill="#ffc925" /><rect width="30" height="10" x="240" y="110" fill="#5a65fa" /><rect width="20" height="10" x="270" y="110" fill="#648df9" /><rect width="20" height="10" x="30" y="120" fill="#648df9" /><rect width="30" height="10" x="50" y="120" fill="#5a65fa" /><rect width="20" height="10" x="90" y="120" fill="#f78a18" /><rect width="100" height="10" x="110" y="120" fill="#ffb913" /><rect width="20" height="10" x="210" y="120" fill="#ffc925" /><rect width="30" height="10" x="240" y="120" fill="#5a65fa" /><rect width="20" height="10" x="270" y="120" fill="#648df9" /><rect width="20" height="10" x="30" y="130" fill="#eff2fa" /><rect width="40" height="10" x="50" y="130" fill="#abaaa8" /><rect width="20" height="10" x="90" y="130" fill="#f78a18" /><rect width="100" height="10" x="110" y="130" fill="#ffb913" /><rect width="20" height="10" x="210" y="130" fill="#ffc925" /><rect width="30" height="10" x="240" y="130" fill="#5a65fa" /><rect width="20" height="10" x="270" y="130" fill="#648df9" /><rect width="20" height="10" x="30" y="140" fill="#648df9" /><rect width="30" height="10" x="50" y="140" fill="#5a65fa" /><rect width="20" height="10" x="90" y="140" fill="#f78a18" /><rect width="100" height="10" x="110" y="140" fill="#ffb913" /><rect width="20" height="10" x="210" y="140" fill="#ffc925" /><rect width="40" height="10" x="230" y="140" fill="#abaaa8" /><rect width="20" height="10" x="270" y="140" fill="#eff2fa" /><rect width="20" height="10" x="30" y="150" fill="#648df9" /><rect width="30" height="10" x="50" y="150" fill="#5a65fa" /><rect width="20" height="10" x="90" y="150" fill="#f78a18" /><rect width="100" height="10" x="110" y="150" fill="#ffb913" /><rect width="20" height="10" x="210" y="150" fill="#ffc925" /><rect width="30" height="10" x="240" y="150" fill="#5a65fa" /><rect width="20" height="10" x="270" y="150" fill="#648df9" /><rect width="20" height="10" x="30" y="160" fill="#648df9" /><rect width="30" height="10" x="50" y="160" fill="#5a65fa" /><rect width="20" height="10" x="90" y="160" fill="#f78a18" /><rect width="100" height="10" x="110" y="160" fill="#ffb913" /><rect width="20" height="10" x="210" y="160" fill="#ffc925" /><rect width="30" height="10" x="240" y="160" fill="#5a65fa" /><rect width="20" height="10" x="270" y="160" fill="#648df9" /><rect width="20" height="10" x="30" y="170" fill="#648df9" /><rect width="30" height="10" x="50" y="170" fill="#5a65fa" /><rect width="20" height="10" x="90" y="170" fill="#f78a18" /><rect width="100" height="10" x="110" y="170" fill="#ffb913" /><rect width="20" height="10" x="210" y="170" fill="#ffc925" /><rect width="30" height="10" x="240" y="170" fill="#5a65fa" /><rect width="20" height="10" x="270" y="170" fill="#648df9" /><rect width="120" height="10" x="100" y="180" fill="#343235" /><rect width="30" height="10" x="240" y="180" fill="#5a65fa" /><rect width="20" height="10" x="270" y="180" fill="#648df9" /><rect width="20" height="10" x="90" y="190" fill="#f78a18" /><rect width="100" height="10" x="110" y="190" fill="#ffb913" /><rect width="20" height="10" x="210" y="190" fill="#ffc925" /><rect width="20" height="10" x="90" y="200" fill="#f78a18" /><rect width="100" height="10" x="110" y="200" fill="#ffb913" /><rect width="20" height="10" x="210" y="200" fill="#ffc925" /></svg>