<svg width="320" height="320" viewBox="0 0 320 320" xmlns="http://www.w3.org/2000/svg" shape-rendering="crispEdges"><rect width="100%" height="100%" fill="none" /><rect width="10" height="10" x="130" y="30" fill="#2a86fd" /><rect width="10" height="10" x="150" y="30" fill="#2a86fd" /><rect width="10" height="10" x="160" y="30" fill="#a86f60" /><rect width="20" height="10" x="140" y="40" fill="#2a86fd" /><rect width="10" height="10" x="160" y="40" fill="#a86f60" /><rect width="10" height="10" x="160" y="50" fill="#a86f60" /><rect width="30" height="10" x="100" y="60" fill="#caa26a" /><rect width="40" height="10" x="140" y="60" fill="#caa26a" /><rect width="30" height="10" x="190" y="60" fill="#caa26a" /><rect width="30" height="10" x="100" y="70" fill="#caa26a" /><rect width="40" height="10" x="140" y="70" fill="#caa26a" /><rect width="30" height="10" x="190" y="70" fill="#caa26a" /><rect width="30" height="10" x="100" y="80" fill="#caa26a" /><rect width="10" height="10" x="130" y="80" fill="#a86f60" /><rect width="40" height="10" x="140" y="80" fill="#caa26a" /><rect width="10" height="10" x="180" y="80" fill="#a86f60" /><rect width="30" height="10" x="190" y="80" fill="#caa26a" /><rect width="80" height="10" x="90" y="90" fill="#caa26a" /><rect width="10" height="10" x="170" y="90" fill="#cfc9b8" /><rect width="50" height="10" x="180" y="90" fill="#caa26a" /><rect width="30" height="10" x="90" y="100" fill="#caa26a" /><rect width="10" height="10" x="120" y="100" fill="#cfc9b8" /><rect width="80" height="10" x="130" y="100" fill="#caa26a" /><rect width="10" height="10" x="210" y="100" fill="#a86f60" /><rect width="10" height="10" x="220" y="100" fill="#caa26a" /><rect width="140" height="10" x="90" y="110" fill="#caa26a" /><rect width="140" height="10" x="90" y="120" fill="#caa26a" /><rect width="160" height="10" x="80" y="130" fill="#caa26a" /><rect width="160" height="10" x="80" y="140" fill="#caa26a" /><rect width="160" height="10" x="80" y="150" fill="#caa26a" /><rect width="160" height="10" x="80" y="160" fill="#caa26a" /><rect width="120" height="10" x="80" y="170" fill="#caa26a" /><rect width="10" height="10" x="200" y="170" fill="#cfc9b8" /><rect width="30" height="10" x="210" y="170" fill="#caa26a" /><rect width="20" height="10" x="80" y="180" fill="#caa26a" /><rect width="60" height="10" x="100" y="180" fill="#a86f60" /><rect width="60" height="10" x="160" y="180" fill="#caa26a" /><rect width="20" height="10" x="220" y="180" fill="#a86f60" /><rect width="40" height="10" x="70" y="190" fill="#caa26a" /><rect width="20" height="10" x="110" y="190" fill="#cfc9b8" /><rect width="120" height="10" x="130" y="190" fill="#caa26a" /><rect width="180" height="10" x="70" y="200" fill="#caa26a" /></svg>