<svg width="320" height="320" viewBox="0 0 320 320" xmlns="http://www.w3.org/2000/svg" shape-rendering="crispEdges"><rect width="100%" height="100%" fill="none" /><rect width="10" height="10" x="80" y="60" fill="#aaa6a4" /><rect width="10" height="10" x="90" y="60" fill="#ffffff" /><rect width="10" height="10" x="100" y="60" fill="#aaa6a4" /><rect width="10" height="10" x="110" y="60" fill="#ffffff" /><rect width="10" height="10" x="120" y="60" fill="#aaa6a4" /><rect width="10" height="10" x="130" y="60" fill="#ffffff" /><rect width="10" height="10" x="140" y="60" fill="#aaa6a4" /><rect width="10" height="10" x="150" y="60" fill="#ffffff" /><rect width="10" height="10" x="80" y="70" fill="#aaa6a4" /><rect width="10" height="10" x="90" y="70" fill="#ffffff" /><rect width="10" height="10" x="100" y="70" fill="#aaa6a4" /><rect width="10" height="10" x="110" y="70" fill="#ffffff" /><rect width="10" height="10" x="120" y="70" fill="#aaa6a4" /><rect width="10" height="10" x="130" y="70" fill="#ffffff" /><rect width="10" height="10" x="140" y="70" fill="#aaa6a4" /><rect width="10" height="10" x="150" y="70" fill="#ffffff" /><rect width="10" height="10" x="80" y="80" fill="#aaa6a4" /><rect width="10" height="10" x="90" y="80" fill="#ffffff" /><rect width="10" height="10" x="100" y="80" fill="#aaa6a4" /><rect width="10" height="10" x="110" y="80" fill="#ffffff" /><rect width="10" height="10" x="120" y="80" fill="#aaa6a4" /><rect width="10" height="10" x="130" y="80" fill="#ffffff" /><rect width="10" height="10" x="140" y="80" fill="#aaa6a4" /><rect width="10" height="10" x="150" y="80" fill="#ffffff" /><rect width="10" height="10" x="80" y="90" fill="#aaa6a4" /><rect width="10" height="10" x="90" y="90" fill="#ffffff" /><rect width="10" height="10" x="100" y="90" fill="#aaa6a4" /><rect width="10" height="10" x="110" y="90" fill="#ffffff" /><rect width="10" height="10" x="120" y="90" fill="#aaa6a4" /><rect width="10" height="10" x="130" y="90" fill="#ffffff" /><rect width="10" height="10" x="140" y="90" fill="#aaa6a4" /><rect width="10" height="10" x="150" y="90" fill="#ffffff" /><rect width="80" height="10" x="80" y="100" fill="#ffffff" /><rect width="80" height="10" x="80" y="110" fill="#ffffff" /><rect width="80" height="10" x="80" y="120" fill="#ffffff" /><rect width="80" height="10" x="80" y="130" fill="#ffffff" /><rect width="80" height="10" x="80" y="140" fill="#ffffff" /><rect width="80" height="10" x="80" y="150" fill="#ffffff" /><rect width="170" height="10" x="80" y="160" fill="#ffffff" /><rect width="180" height="10" x="80" y="170" fill="#ffffff" /><rect width="180" height="10" x="80" y="180" fill="#ffffff" /><rect width="50" height="10" x="80" y="190" fill="#ffffff" /><rect width="50" height="10" x="130" y="190" fill="#aaa6a4" /><rect width="80" height="10" x="180" y="190" fill="#ffffff" /><rect width="170" height="10" x="80" y="200" fill="#ffffff" /></svg>