<svg width="320" height="320" viewBox="0 0 320 320" xmlns="http://www.w3.org/2000/svg" shape-rendering="crispEdges"><rect width="100%" height="100%" fill="none" /><rect width="20" height="10" x="80" y="50" fill="#343235" /><rect width="30" height="10" x="110" y="50" fill="#343235" /><rect width="60" height="10" x="140" y="50" fill="#abaaa8" /><rect width="20" height="10" x="200" y="50" fill="#343235" /><rect width="60" height="10" x="80" y="60" fill="#343235" /><rect width="30" height="10" x="140" y="60" fill="#abaaa8" /><rect width="20" height="10" x="170" y="60" fill="#343235" /><rect width="10" height="10" x="190" y="60" fill="#abaaa8" /><rect width="30" height="10" x="200" y="60" fill="#343235" /><rect width="60" height="10" x="80" y="70" fill="#343235" /><rect width="30" height="10" x="140" y="70" fill="#abaaa8" /><rect width="20" height="10" x="170" y="70" fill="#343235" /><rect width="10" height="10" x="190" y="70" fill="#abaaa8" /><rect width="40" height="10" x="200" y="70" fill="#343235" /><rect width="60" height="10" x="80" y="80" fill="#343235" /><rect width="60" height="10" x="140" y="80" fill="#abaaa8" /><rect width="40" height="10" x="200" y="80" fill="#343235" /><rect width="160" height="10" x="80" y="90" fill="#343235" /><rect width="160" height="10" x="80" y="100" fill="#343235" /><rect width="160" height="10" x="80" y="110" fill="#343235" /><rect width="160" height="10" x="80" y="120" fill="#343235" /><rect width="30" height="10" x="80" y="130" fill="#343235" /><rect width="100" height="10" x="110" y="130" fill="#e5e5de" /><rect width="30" height="10" x="210" y="130" fill="#343235" /><rect width="30" height="10" x="80" y="140" fill="#343235" /><rect width="100" height="10" x="110" y="140" fill="#e5e5de" /><rect width="30" height="10" x="210" y="140" fill="#343235" /><rect width="30" height="10" x="80" y="150" fill="#343235" /><rect width="100" height="10" x="110" y="150" fill="#e5e5de" /><rect width="30" height="10" x="210" y="150" fill="#343235" /><rect width="30" height="10" x="80" y="160" fill="#343235" /><rect width="100" height="10" x="110" y="160" fill="#e5e5de" /><rect width="30" height="10" x="210" y="160" fill="#343235" /><rect width="30" height="10" x="80" y="170" fill="#343235" /><rect width="100" height="10" x="110" y="170" fill="#e5e5de" /><rect width="30" height="10" x="210" y="170" fill="#343235" /><rect width="30" height="10" x="80" y="180" fill="#343235" /><rect width="30" height="10" x="110" y="180" fill="#e5e5de" /><rect width="40" height="10" x="140" y="180" fill="#abaaa8" /><rect width="30" height="10" x="180" y="180" fill="#e5e5de" /><rect width="30" height="10" x="210" y="180" fill="#343235" /><rect width="30" height="10" x="80" y="190" fill="#343235" /><rect width="100" height="10" x="110" y="190" fill="#e5e5de" /><rect width="30" height="10" x="210" y="190" fill="#343235" /><rect width="30" height="10" x="80" y="200" fill="#343235" /><rect width="100" height="10" x="110" y="200" fill="#e5e5de" /><rect width="30" height="10" x="210" y="200" fill="#343235" /></svg>