<svg width="320" height="320" viewBox="0 0 320 320" xmlns="http://www.w3.org/2000/svg" shape-rendering="crispEdges"><rect width="100%" height="100%" fill="none" /><rect width="30" height="10" x="150" y="60" fill="#ffffff" /><rect width="10" height="10" x="140" y="70" fill="#ffffff" /><rect width="10" height="10" x="180" y="70" fill="#ffffff" /><rect width="10" height="10" x="180" y="80" fill="#ffffff" /><rect width="10" height="10" x="180" y="90" fill="#ffffff" /><rect width="20" height="10" x="160" y="100" fill="#ffffff" /><rect width="10" height="10" x="160" y="110" fill="#ffffff" /><rect width="10" height="10" x="160" y="120" fill="#ffffff" /><rect width="10" height="10" x="160" y="130" fill="#ffffff" /><rect width="10" height="10" x="150" y="140" fill="#ffffff" /><rect width="10" height="10" x="170" y="140" fill="#ffffff" /><rect width="20" height="10" x="130" y="150" fill="#ffffff" /><rect width="20" height="10" x="180" y="150" fill="#ffffff" /><rect width="30" height="10" x="100" y="160" fill="#ffffff" /><rect width="30" height="10" x="200" y="160" fill="#ffffff" /><rect width="20" height="10" x="80" y="170" fill="#ffffff" /><rect width="20" height="10" x="230" y="170" fill="#ffffff" /><rect width="20" height="10" x="60" y="180" fill="#ffffff" /><rect width="20" height="10" x="250" y="180" fill="#ffffff" /><rect width="10" height="10" x="50" y="190" fill="#ffffff" /><rect width="10" height="10" x="270" y="190" fill="#ffffff" /><rect width="10" height="10" x="50" y="200" fill="#ffffff" /><rect width="10" height="10" x="270" y="200" fill="#ffffff" /><rect width="30" height="10" x="60" y="210" fill="#ffffff" /><rect width="40" height="10" x="230" y="210" fill="#ffffff" /></svg>