<svg width="320" height="320" viewBox="0 0 320 320" xmlns="http://www.w3.org/2000/svg" shape-rendering="crispEdges"><rect width="100%" height="100%" fill="none" /><rect width="10" height="10" x="40" y="80" fill="#fffdf2" /><rect width="10" height="10" x="80" y="80" fill="#fffdf2" /><rect width="60" height="10" x="190" y="80" fill="#fffdf2" /><rect width="20" height="10" x="40" y="90" fill="#fffdf2" /><rect width="20" height="10" x="70" y="90" fill="#fffdf2" /><rect width="140" height="10" x="130" y="90" fill="#fffdf2" /><rect width="50" height="10" x="40" y="100" fill="#fffdf2" /><rect width="170" height="10" x="100" y="100" fill="#fffdf2" /><rect width="30" height="10" x="50" y="110" fill="#fffdf2" /><rect width="190" height="10" x="90" y="110" fill="#fffdf2" /><rect width="30" height="10" x="50" y="120" fill="#fffdf2" /><rect width="190" height="10" x="90" y="120" fill="#fffdf2" /><rect width="30" height="10" x="50" y="130" fill="#fffdf2" /><rect width="190" height="10" x="90" y="130" fill="#fffdf2" /><rect width="230" height="10" x="50" y="140" fill="#fffdf2" /><rect width="220" height="10" x="50" y="150" fill="#fffdf2" /><rect width="200" height="10" x="60" y="160" fill="#fffdf2" /><rect width="210" height="10" x="60" y="170" fill="#fffdf2" /><rect width="30" height="10" x="70" y="180" fill="#fffdf2" /><rect width="10" height="10" x="100" y="180" fill="#b8ced2" /><rect width="70" height="10" x="110" y="180" fill="#fffdf2" /><rect width="20" height="10" x="180" y="180" fill="#1f1d29" /><rect width="80" height="10" x="200" y="180" fill="#fffdf2" /><rect width="10" height="10" x="80" y="190" fill="#fffdf2" /><rect width="10" height="10" x="90" y="190" fill="#b8ced2" /><rect width="40" height="10" x="100" y="190" fill="#fffdf2" /><rect width="10" height="10" x="140" y="190" fill="#b8ced2" /><rect width="60" height="10" x="150" y="190" fill="#fffdf2" /><rect width="40" height="10" x="90" y="200" fill="#fffdf2" /><rect width="10" height="10" x="130" y="200" fill="#b8ced2" /><rect width="130" height="10" x="140" y="200" fill="#fffdf2" /></svg>