<svg width="320" height="320" viewBox="0 0 320 320" xmlns="http://www.w3.org/2000/svg" shape-rendering="crispEdges"><rect width="100%" height="100%" fill="none" /><rect width="10" height="10" x="150" y="20" fill="#fff0ee" /><rect width="10" height="10" x="150" y="30" fill="#fff0ee" /><rect width="10" height="10" x="150" y="40" fill="#fff0ee" /><rect width="10" height="10" x="150" y="50" fill="#fff0ee" /><rect width="20" height="10" x="130" y="60" fill="#feb9d5" /><rect width="10" height="10" x="150" y="60" fill="#fff0ee" /><rect width="20" height="10" x="160" y="60" fill="#feb9d5" /><rect width="30" height="10" x="110" y="70" fill="#feb9d5" /><rect width="10" height="10" x="140" y="70" fill="#ff82ad" /><rect width="10" height="10" x="150" y="70" fill="#fff0ee" /><rect width="10" height="10" x="160" y="70" fill="#ff82ad" /><rect width="30" height="10" x="170" y="70" fill="#feb9d5" /><rect width="10" height="10" x="70" y="80" fill="#feb9d5" /><rect width="30" height="10" x="100" y="80" fill="#feb9d5" /><rect width="30" height="10" x="130" y="80" fill="#ff82ad" /><rect width="60" height="10" x="160" y="80" fill="#feb9d5" /><rect width="10" height="10" x="230" y="80" fill="#feb9d5" /><rect width="80" height="10" x="80" y="90" fill="#feb9d5" /><rect width="10" height="10" x="160" y="90" fill="#ff82ad" /><rect width="40" height="10" x="170" y="90" fill="#feb9d5" /><rect width="10" height="10" x="210" y="90" fill="#ff82ad" /><rect width="10" height="10" x="220" y="90" fill="#feb9d5" /><rect width="160" height="10" x="80" y="100" fill="#feb9d5" /><rect width="10" height="10" x="50" y="110" fill="#feb9d5" /><rect width="170" height="10" x="70" y="110" fill="#feb9d5" /><rect width="180" height="10" x="60" y="120" fill="#feb9d5" /><rect width="10" height="10" x="240" y="120" fill="#ff82ad" /><rect width="190" height="10" x="60" y="130" fill="#feb9d5" /><rect width="190" height="10" x="60" y="140" fill="#feb9d5" /><rect width="10" height="10" x="250" y="140" fill="#ff82ad" /><rect width="10" height="10" x="60" y="150" fill="#ff82ad" /><rect width="170" height="10" x="70" y="150" fill="#feb9d5" /><rect width="10" height="10" x="240" y="150" fill="#ff82ad" /><rect width="10" height="10" x="260" y="150" fill="#ff82ad" /><rect width="10" height="10" x="50" y="160" fill="#ff82ad" /><rect width="10" height="10" x="70" y="160" fill="#ff82ad" /><rect width="170" height="10" x="80" y="160" fill="#feb9d5" /><rect width="170" height="10" x="70" y="170" fill="#feb9d5" /><rect width="10" height="10" x="240" y="170" fill="#ff82ad" /><rect width="10" height="10" x="70" y="180" fill="#ff82ad" /><rect width="40" height="10" x="80" y="180" fill="#feb9d5" /><rect width="30" height="10" x="120" y="180" fill="#ff82ad" /><rect width="70" height="10" x="150" y="180" fill="#feb9d5" /><rect width="20" height="10" x="220" y="180" fill="#ff82ad" /><rect width="10" height="10" x="60" y="190" fill="#ff82ad" /><rect width="30" height="10" x="80" y="190" fill="#ff82ad" /><rect width="50" height="10" x="110" y="190" fill="#feb9d5" /><rect width="70" height="10" x="160" y="190" fill="#ff82ad" /><rect width="120" height="10" x="100" y="200" fill="#ff82ad" /><rect width="10" height="10" x="230" y="200" fill="#ff82ad" /></svg>