<svg width="320" height="320" viewBox="0 0 320 320" xmlns="http://www.w3.org/2000/svg" shape-rendering="crispEdges"><rect width="100%" height="100%" fill="none" /><rect width="140" height="10" x="90" y="30" fill="#ffffff" /><rect width="10" height="10" x="90" y="40" fill="#ffffff" /><rect width="100" height="10" x="110" y="40" fill="#ffffff" /><rect width="10" height="10" x="220" y="40" fill="#ffffff" /><rect width="140" height="10" x="90" y="50" fill="#ffffff" /><rect width="90" height="10" x="60" y="60" fill="#c5b9a1" /><rect width="60" height="10" x="150" y="60" fill="#ffffff" /><rect width="10" height="10" x="220" y="60" fill="#ffffff" /><rect width="20" height="10" x="60" y="70" fill="#c5b9a1" /><rect width="10" height="10" x="80" y="70" fill="#9d8e6e" /><rect width="10" height="10" x="90" y="70" fill="#c5b9a1" /><rect width="10" height="10" x="100" y="70" fill="#9d8e6e" /><rect width="10" height="10" x="110" y="70" fill="#c5b9a1" /><rect width="10" height="10" x="120" y="70" fill="#9d8e6e" /><rect width="20" height="10" x="130" y="70" fill="#c5b9a1" /><rect width="80" height="10" x="150" y="70" fill="#ffffff" /><rect width="90" height="10" x="60" y="80" fill="#c5b9a1" /><rect width="60" height="10" x="150" y="80" fill="#ffffff" /><rect width="10" height="10" x="220" y="80" fill="#ffffff" /><rect width="20" height="10" x="60" y="90" fill="#c5b9a1" /><rect width="10" height="10" x="80" y="90" fill="#9d8e6e" /><rect width="10" height="10" x="90" y="90" fill="#c5b9a1" /><rect width="10" height="10" x="100" y="90" fill="#9d8e6e" /><rect width="10" height="10" x="110" y="90" fill="#c5b9a1" /><rect width="10" height="10" x="120" y="90" fill="#9d8e6e" /><rect width="130" height="10" x="130" y="90" fill="#c5b9a1" /><rect width="180" height="10" x="60" y="100" fill="#c5b9a1" /><rect width="40" height="10" x="240" y="100" fill="#9d8e6e" /><rect width="20" height="10" x="60" y="110" fill="#c5b9a1" /><rect width="10" height="10" x="80" y="110" fill="#9d8e6e" /><rect width="10" height="10" x="90" y="110" fill="#c5b9a1" /><rect width="10" height="10" x="100" y="110" fill="#9d8e6e" /><rect width="10" height="10" x="110" y="110" fill="#c5b9a1" /><rect width="10" height="10" x="120" y="110" fill="#9d8e6e" /><rect width="110" height="10" x="130" y="110" fill="#c5b9a1" /><rect width="40" height="10" x="240" y="110" fill="#9d8e6e" /><rect width="180" height="10" x="60" y="120" fill="#c5b9a1" /><rect width="40" height="10" x="240" y="120" fill="#9d8e6e" /><rect width="180" height="10" x="60" y="130" fill="#c5b9a1" /><rect width="40" height="10" x="240" y="130" fill="#9d8e6e" /><rect width="180" height="10" x="60" y="140" fill="#c5b9a1" /><rect width="40" height="10" x="240" y="140" fill="#9d8e6e" /><rect width="180" height="10" x="60" y="150" fill="#c5b9a1" /><rect width="40" height="10" x="240" y="150" fill="#9d8e6e" /><rect width="180" height="10" x="60" y="160" fill="#c5b9a1" /><rect width="40" height="10" x="240" y="160" fill="#9d8e6e" /><rect width="180" height="10" x="60" y="170" fill="#c5b9a1" /><rect width="40" height="10" x="240" y="170" fill="#9d8e6e" /><rect width="140" height="10" x="60" y="180" fill="#c5b9a1" /><rect width="10" height="10" x="200" y="180" fill="#34ac80" /><rect width="10" height="10" x="210" y="180" fill="#c5b9a1" /><rect width="10" height="10" x="220" y="180" fill="#e11833" /><rect width="10" height="10" x="230" y="180" fill="#c5b9a1" /><rect width="40" height="10" x="240" y="180" fill="#9d8e6e" /><rect width="200" height="10" x="60" y="190" fill="#c5b9a1" /><rect width="10" height="10" x="260" y="190" fill="#5d6061" /><rect width="20" height="10" x="60" y="200" fill="#c5b9a1" /><rect width="160" height="10" x="80" y="200" fill="#9d8e6e" /><rect width="20" height="10" x="240" y="200" fill="#c5b9a1" /><rect width="10" height="10" x="260" y="200" fill="#5d6061" /><rect width="20" height="10" x="60" y="210" fill="#c5b9a1" /><rect width="10" height="10" x="80" y="210" fill="#9d8e6e" /><rect width="10" height="10" x="230" y="210" fill="#9d8e6e" /><rect width="20" height="10" x="240" y="210" fill="#c5b9a1" /><rect width="10" height="10" x="260" y="210" fill="#5d6061" /><rect width="30" height="10" x="60" y="220" fill="#c5b9a1" /><rect width="30" height="10" x="230" y="220" fill="#c5b9a1" /><rect width="10" height="10" x="260" y="220" fill="#5d6061" /><rect width="10" height="10" x="240" y="230" fill="#5d6061" /><rect width="10" height="10" x="260" y="230" fill="#5d6061" /><rect width="10" height="10" x="240" y="240" fill="#5d6061" /><rect width="10" height="10" x="260" y="240" fill="#5d6061" /><rect width="10" height="10" x="240" y="250" fill="#5d6061" /><rect width="10" height="10" x="260" y="250" fill="#5d6061" /><rect width="10" height="10" x="250" y="260" fill="#5d6061" /></svg>