<svg width="320" height="320" viewBox="0 0 320 320" xmlns="http://www.w3.org/2000/svg" shape-rendering="crispEdges"><rect width="100%" height="100%" fill="none" /><rect width="30" height="10" x="170" y="40" fill="#807f7e" /><rect width="10" height="10" x="180" y="50" fill="#807f7e" /><rect width="10" height="10" x="260" y="50" fill="#ffa21e" /><rect width="10" height="10" x="180" y="60" fill="#ffa21e" /><rect width="20" height="10" x="250" y="60" fill="#ffa21e" /><rect width="10" height="10" x="180" y="70" fill="#ffa21e" /><rect width="30" height="10" x="240" y="70" fill="#ffa21e" /><rect width="150" height="10" x="90" y="80" fill="#ffa21e" /><rect width="10" height="10" x="240" y="80" fill="#f9f5cb" /><rect width="20" height="10" x="250" y="80" fill="#ffa21e" /><rect width="10" height="10" x="80" y="90" fill="#ffa21e" /><rect width="130" height="10" x="90" y="90" fill="#f9f5cb" /><rect width="10" height="10" x="220" y="90" fill="#ffa21e" /><rect width="10" height="10" x="230" y="90" fill="#f9f5cb" /><rect width="30" height="10" x="240" y="90" fill="#ffa21e" /><rect width="10" height="10" x="70" y="100" fill="#ffa21e" /><rect width="10" height="10" x="80" y="100" fill="#f9f5cb" /><rect width="180" height="10" x="90" y="100" fill="#ffa21e" /><rect width="210" height="10" x="60" y="110" fill="#ffa21e" /><rect width="210" height="10" x="60" y="120" fill="#ffa21e" /><rect width="210" height="10" x="60" y="130" fill="#ffa21e" /><rect width="50" height="10" x="60" y="140" fill="#ffa21e" /><rect width="10" height="10" x="130" y="140" fill="#ffa21e" /><rect width="10" height="10" x="160" y="140" fill="#ffa21e" /><rect width="20" height="10" x="210" y="140" fill="#ffa21e" /><rect width="30" height="10" x="240" y="140" fill="#ffa21e" /><rect width="40" height="10" x="60" y="150" fill="#ffa21e" /><rect width="80" height="10" x="110" y="150" fill="#ffa21e" /><rect width="10" height="10" x="190" y="150" fill="#807f7e" /><rect width="20" height="10" x="220" y="150" fill="#ffa21e" /><rect width="20" height="10" x="250" y="150" fill="#ffa21e" /><rect width="30" height="10" x="60" y="160" fill="#ffa21e" /><rect width="10" height="10" x="100" y="160" fill="#ffa21e" /><rect width="10" height="10" x="160" y="160" fill="#ffa21e" /><rect width="20" height="10" x="220" y="160" fill="#ffa21e" /><rect width="10" height="10" x="260" y="160" fill="#ffa21e" /><rect width="30" height="10" x="60" y="170" fill="#ffa21e" /><rect width="90" height="10" x="100" y="170" fill="#ffa21e" /><rect width="10" height="10" x="190" y="170" fill="#807f7e" /><rect width="20" height="10" x="220" y="170" fill="#ffa21e" /><rect width="30" height="10" x="60" y="180" fill="#ffa21e" /><rect width="10" height="10" x="100" y="180" fill="#ffa21e" /><rect width="10" height="10" x="160" y="180" fill="#ffa21e" /><rect width="20" height="10" x="220" y="180" fill="#ffa21e" /><rect width="40" height="10" x="60" y="190" fill="#ffa21e" /><rect width="80" height="10" x="110" y="190" fill="#ffa21e" /><rect width="10" height="10" x="190" y="190" fill="#807f7e" /><rect width="20" height="10" x="220" y="190" fill="#ffa21e" /><rect width="40" height="10" x="70" y="200" fill="#ffa21e" /><rect width="10" height="10" x="130" y="200" fill="#ffa21e" /><rect width="10" height="10" x="160" y="200" fill="#ffa21e" /><rect width="30" height="10" x="210" y="200" fill="#ffa21e" /><rect width="150" height="10" x="80" y="210" fill="#ffa21e" /></svg>