<svg width="320" height="320" viewBox="0 0 320 320" xmlns="http://www.w3.org/2000/svg" shape-rendering="crispEdges"><rect width="100%" height="100%" fill="none" /><rect width="20" height="10" x="50" y="40" fill="#c16923" /><rect width="20" height="10" x="250" y="40" fill="#c16923" /><rect width="20" height="10" x="50" y="50" fill="#c16923" /><rect width="20" height="10" x="80" y="50" fill="#257ced" /><rect width="20" height="10" x="120" y="50" fill="#257ced" /><rect width="20" height="10" x="150" y="50" fill="#257ced" /><rect width="20" height="10" x="180" y="50" fill="#257ced" /><rect width="20" height="10" x="220" y="50" fill="#257ced" /><rect width="20" height="10" x="250" y="50" fill="#c16923" /><rect width="20" height="10" x="50" y="60" fill="#c16923" /><rect width="10" height="10" x="70" y="60" fill="#9f4b27" /><rect width="20" height="10" x="80" y="60" fill="#257ced" /><rect width="20" height="10" x="100" y="60" fill="#c16923" /><rect width="20" height="10" x="120" y="60" fill="#257ced" /><rect width="10" height="10" x="140" y="60" fill="#c16923" /><rect width="20" height="10" x="150" y="60" fill="#257ced" /><rect width="10" height="10" x="170" y="60" fill="#c16923" /><rect width="20" height="10" x="180" y="60" fill="#257ced" /><rect width="20" height="10" x="200" y="60" fill="#c16923" /><rect width="20" height="10" x="220" y="60" fill="#257ced" /><rect width="10" height="10" x="240" y="60" fill="#9f4b27" /><rect width="20" height="10" x="250" y="60" fill="#c16923" /><rect width="20" height="10" x="50" y="70" fill="#c16923" /><rect width="20" height="10" x="80" y="70" fill="#257ced" /><rect width="20" height="10" x="120" y="70" fill="#257ced" /><rect width="20" height="10" x="150" y="70" fill="#257ced" /><rect width="20" height="10" x="180" y="70" fill="#257ced" /><rect width="20" height="10" x="220" y="70" fill="#257ced" /><rect width="20" height="10" x="250" y="70" fill="#c16923" /><rect width="20" height="10" x="50" y="80" fill="#c16923" /><rect width="20" height="10" x="250" y="80" fill="#c16923" /><rect width="20" height="10" x="50" y="90" fill="#c16923" /><rect width="20" height="10" x="90" y="90" fill="#fbc800" /><rect width="20" height="10" x="120" y="90" fill="#fbc800" /><rect width="20" height="10" x="150" y="90" fill="#fbc800" /><rect width="20" height="10" x="180" y="90" fill="#fbc800" /><rect width="20" height="10" x="210" y="90" fill="#fbc800" /><rect width="20" height="10" x="250" y="90" fill="#c16923" /><rect width="20" height="10" x="50" y="100" fill="#c16923" /><rect width="10" height="10" x="70" y="100" fill="#9f4b27" /><rect width="10" height="10" x="80" y="100" fill="#c16923" /><rect width="20" height="10" x="90" y="100" fill="#fbc800" /><rect width="10" height="10" x="110" y="100" fill="#c16923" /><rect width="20" height="10" x="120" y="100" fill="#fbc800" /><rect width="10" height="10" x="140" y="100" fill="#c16923" /><rect width="20" height="10" x="150" y="100" fill="#fbc800" /><rect width="10" height="10" x="170" y="100" fill="#c16923" /><rect width="20" height="10" x="180" y="100" fill="#fbc800" /><rect width="10" height="10" x="200" y="100" fill="#c16923" /><rect width="20" height="10" x="210" y="100" fill="#fbc800" /><rect width="10" height="10" x="230" y="100" fill="#c16923" /><rect width="10" height="10" x="240" y="100" fill="#9f4b27" /><rect width="20" height="10" x="250" y="100" fill="#c16923" /><rect width="20" height="10" x="50" y="110" fill="#c16923" /><rect width="20" height="10" x="90" y="110" fill="#fbc800" /><rect width="20" height="10" x="120" y="110" fill="#fbc800" /><rect width="20" height="10" x="150" y="110" fill="#fbc800" /><rect width="20" height="10" x="180" y="110" fill="#fbc800" /><rect width="20" height="10" x="210" y="110" fill="#fbc800" /><rect width="20" height="10" x="250" y="110" fill="#c16923" /><rect width="20" height="10" x="50" y="120" fill="#c16923" /><rect width="20" height="10" x="250" y="120" fill="#c16923" /><rect width="20" height="10" x="50" y="130" fill="#c16923" /><rect width="20" height="10" x="90" y="130" fill="#d32a09" /><rect width="20" height="10" x="120" y="130" fill="#d32a09" /><rect width="20" height="10" x="160" y="130" fill="#d32a09" /><rect width="20" height="10" x="190" y="130" fill="#d32a09" /><rect width="20" height="10" x="220" y="130" fill="#d32a09" /><rect width="20" height="10" x="250" y="130" fill="#c16923" /><rect width="20" height="10" x="50" y="140" fill="#c16923" /><rect width="10" height="10" x="70" y="140" fill="#9f4b27" /><rect width="10" height="10" x="80" y="140" fill="#c16923" /><rect width="20" height="10" x="90" y="140" fill="#d32a09" /><rect width="10" height="10" x="110" y="140" fill="#c16923" /><rect width="20" height="10" x="120" y="140" fill="#d32a09" /><rect width="20" height="10" x="140" y="140" fill="#c16923" /><rect width="20" height="10" x="160" y="140" fill="#d32a09" /><rect width="10" height="10" x="180" y="140" fill="#c16923" /><rect width="20" height="10" x="190" y="140" fill="#d32a09" /><rect width="10" height="10" x="210" y="140" fill="#c16923" /><rect width="20" height="10" x="220" y="140" fill="#d32a09" /><rect width="10" height="10" x="240" y="140" fill="#9f4b27" /><rect width="20" height="10" x="250" y="140" fill="#c16923" /><rect width="20" height="10" x="50" y="150" fill="#c16923" /><rect width="20" height="10" x="90" y="150" fill="#d32a09" /><rect width="20" height="10" x="120" y="150" fill="#d32a09" /><rect width="20" height="10" x="160" y="150" fill="#d32a09" /><rect width="20" height="10" x="190" y="150" fill="#d32a09" /><rect width="20" height="10" x="220" y="150" fill="#d32a09" /><rect width="20" height="10" x="250" y="150" fill="#c16923" /><rect width="20" height="10" x="50" y="160" fill="#c16923" /><rect width="20" height="10" x="250" y="160" fill="#c16923" /><rect width="20" height="10" x="50" y="170" fill="#9f4b27" /><rect width="20" height="10" x="250" y="170" fill="#9f4b27" /><rect width="240" height="10" x="40" y="180" fill="#c16923" /><rect width="70" height="10" x="40" y="190" fill="#c16923" /><rect width="30" height="10" x="110" y="190" fill="#000000" /><rect width="20" height="10" x="140" y="190" fill="#ffffff" /><rect width="10" height="10" x="160" y="190" fill="#000000" /><rect width="20" height="10" x="170" y="190" fill="#ffffff" /><rect width="30" height="10" x="190" y="190" fill="#000000" /><rect width="60" height="10" x="220" y="190" fill="#c16923" /><rect width="240" height="10" x="40" y="200" fill="#c16923" /></svg>