<svg width="320" height="320" viewBox="0 0 320 320" xmlns="http://www.w3.org/2000/svg" shape-rendering="crispEdges"><rect width="100%" height="100%" fill="none" /><rect width="20" height="10" x="130" y="220" fill="#648df9" /><rect width="10" height="10" x="160" y="220" fill="#fa6fe2" /><rect width="10" height="10" x="190" y="220" fill="#fa6fe2" /><rect width="10" height="10" x="110" y="230" fill="#648df9" /><rect width="30" height="10" x="130" y="230" fill="#648df9" /><rect width="10" height="10" x="180" y="230" fill="#fa6fe2" /><rect width="10" height="10" x="120" y="240" fill="#648df9" /><rect width="10" height="10" x="160" y="240" fill="#648df9" /><rect width="20" height="10" x="190" y="240" fill="#fa6fe2" /><rect width="20" height="10" x="140" y="250" fill="#ffe939" /><rect width="10" height="10" x="170" y="250" fill="#648df9" /><rect width="20" height="10" x="190" y="250" fill="#fa6fe2" /><rect width="10" height="10" x="130" y="260" fill="#ffe939" /><rect width="10" height="10" x="150" y="260" fill="#4bea69" /><rect width="10" height="10" x="160" y="260" fill="#ffe939" /><rect width="10" height="10" x="170" y="260" fill="#648df9" /><rect width="10" height="10" x="190" y="260" fill="#fa6fe2" /><rect width="10" height="10" x="120" y="270" fill="#ffe939" /><rect width="10" height="10" x="140" y="270" fill="#4bea69" /><rect width="10" height="10" x="150" y="270" fill="#fa6fe2" /><rect width="10" height="10" x="160" y="270" fill="#648df9" /><rect width="10" height="10" x="180" y="270" fill="#fa6fe2" /><rect width="10" height="10" x="200" y="270" fill="#4bea69" /><rect width="10" height="10" x="120" y="280" fill="#ffe939" /><rect width="10" height="10" x="140" y="280" fill="#4bea69" /><rect width="20" height="10" x="160" y="280" fill="#fa6fe2" /><rect width="10" height="10" x="120" y="290" fill="#ffe939" /><rect width="10" height="10" x="150" y="290" fill="#4bea69" /><rect width="10" height="10" x="190" y="290" fill="#4bea69" /><rect width="10" height="10" x="130" y="300" fill="#ffe939" /><rect width="30" height="10" x="160" y="300" fill="#4bea69" /><rect width="10" height="10" x="200" y="300" fill="#4bea69" /><rect width="10" height="10" x="120" y="310" fill="#ffe939" /><rect width="10" height="10" x="150" y="310" fill="#ffe939" /><rect width="20" height="10" x="170" y="310" fill="#4bea69" /></svg>