<svg width="320" height="320" viewBox="0 0 320 320" xmlns="http://www.w3.org/2000/svg" shape-rendering="crispEdges"><rect width="100%" height="100%" fill="none" /><rect width="10" height="10" x="130" y="230" fill="#a3efd0" /><rect width="20" height="10" x="170" y="230" fill="#a3efd0" /><rect width="10" height="10" x="130" y="240" fill="#a3efd0" /><rect width="20" height="10" x="160" y="240" fill="#a3efd0" /><rect width="20" height="10" x="130" y="250" fill="#a3efd0" /><rect width="10" height="10" x="160" y="250" fill="#a3efd0" /><rect width="10" height="10" x="140" y="270" fill="#a3efd0" /><rect width="20" height="10" x="170" y="270" fill="#a3efd0" /><rect width="10" height="10" x="130" y="280" fill="#a3efd0" /><rect width="10" height="10" x="150" y="280" fill="#a3efd0" /><rect width="20" height="10" x="170" y="280" fill="#a3efd0" /><rect width="10" height="10" x="130" y="290" fill="#a3efd0" /><rect width="10" height="10" x="150" y="290" fill="#a3efd0" /><rect width="20" height="10" x="170" y="290" fill="#a3efd0" /></svg>