<svg width="320" height="320" viewBox="0 0 320 320" xmlns="http://www.w3.org/2000/svg" shape-rendering="crispEdges"><rect width="100%" height="100%" fill="none" /><rect width="10" height="10" x="90" y="240" fill="#ffc110" /><rect width="30" height="10" x="110" y="240" fill="#ffc110" /><rect width="30" height="10" x="150" y="240" fill="#ffc110" /><rect width="30" height="10" x="190" y="240" fill="#ffc110" /><rect width="10" height="10" x="100" y="250" fill="#ffc110" /><rect width="10" height="10" x="140" y="250" fill="#ffc110" /><rect width="10" height="10" x="180" y="250" fill="#ffc110" /><rect width="10" height="10" x="220" y="250" fill="#ffc110" /><rect width="20" height="10" x="90" y="260" fill="#ffc110" /><rect width="30" height="10" x="130" y="260" fill="#ffc110" /><rect width="30" height="10" x="170" y="260" fill="#ffc110" /><rect width="20" height="10" x="210" y="260" fill="#ffc110" /><rect width="10" height="10" x="100" y="270" fill="#ffc110" /><rect width="10" height="10" x="140" y="270" fill="#ffc110" /><rect width="10" height="10" x="180" y="270" fill="#ffc110" /><rect width="10" height="10" x="220" y="270" fill="#ffc110" /><rect width="10" height="10" x="90" y="280" fill="#ffc110" /><rect width="20" height="10" x="120" y="280" fill="#ffc110" /><rect width="30" height="10" x="150" y="280" fill="#ffc110" /><rect width="30" height="10" x="190" y="280" fill="#ffc110" /></svg>