<svg width="320" height="320" viewBox="0 0 320 320" xmlns="http://www.w3.org/2000/svg" shape-rendering="crispEdges"><rect width="100%" height="100%" fill="none" /><rect width="30" height="10" x="130" y="210" fill="#00a556" /><rect width="30" height="10" x="170" y="210" fill="#ffc925" /><rect width="20" height="10" x="210" y="210" fill="#fe500c" /><rect width="30" height="10" x="90" y="220" fill="#9f21a0" /><rect width="30" height="10" x="130" y="220" fill="#00a556" /><rect width="30" height="10" x="170" y="220" fill="#ffc925" /><rect width="30" height="10" x="90" y="230" fill="#9f21a0" /><rect width="30" height="10" x="130" y="230" fill="#00a556" /><rect width="30" height="10" x="200" y="230" fill="#9f21a0" /><rect width="30" height="10" x="90" y="240" fill="#9f21a0" /><rect width="30" height="10" x="160" y="240" fill="#c5030e" /><rect width="30" height="10" x="200" y="240" fill="#9f21a0" /><rect width="30" height="10" x="120" y="250" fill="#fe500c" /><rect width="30" height="10" x="160" y="250" fill="#c5030e" /><rect width="30" height="10" x="200" y="250" fill="#9f21a0" /><rect width="20" height="10" x="90" y="260" fill="#ffc925" /><rect width="30" height="10" x="120" y="260" fill="#fe500c" /><rect width="30" height="10" x="160" y="260" fill="#c5030e" /><rect width="20" height="10" x="90" y="270" fill="#ffc925" /><rect width="30" height="10" x="120" y="270" fill="#fe500c" /><rect width="30" height="10" x="190" y="270" fill="#ffc925" /><rect width="20" height="10" x="90" y="280" fill="#ffc925" /><rect width="30" height="10" x="150" y="280" fill="#00a556" /><rect width="30" height="10" x="190" y="280" fill="#ffc925" /><rect width="20" height="10" x="120" y="290" fill="#9f21a0" /><rect width="30" height="10" x="150" y="290" fill="#00a556" /><rect width="30" height="10" x="190" y="290" fill="#ffc925" /><rect width="10" height="10" x="90" y="300" fill="#c5030e" /><rect width="20" height="10" x="120" y="300" fill="#9f21a0" /><rect width="30" height="10" x="150" y="300" fill="#00a556" /><rect width="10" height="10" x="220" y="300" fill="#9f21a0" /><rect width="10" height="10" x="90" y="310" fill="#c5030e" /><rect width="20" height="10" x="120" y="310" fill="#9f21a0" /><rect width="30" height="10" x="180" y="310" fill="#c5030e" /><rect width="10" height="10" x="220" y="310" fill="#9f21a0" /></svg>