<svg width="320" height="320" viewBox="0 0 320 320" xmlns="http://www.w3.org/2000/svg" shape-rendering="crispEdges"><rect width="100%" height="100%" fill="none" /><rect width="20" height="10" x="120" y="210" fill="#ffffff" /><rect width="20" height="10" x="180" y="210" fill="#ffffff" /><rect width="20" height="10" x="120" y="220" fill="#ffffff" /><rect width="20" height="10" x="180" y="220" fill="#ffffff" /><rect width="20" height="10" x="90" y="240" fill="#ffffff" /><rect width="20" height="10" x="150" y="240" fill="#ffffff" /><rect width="20" height="10" x="210" y="240" fill="#ffffff" /><rect width="20" height="10" x="90" y="250" fill="#ffffff" /><rect width="20" height="10" x="150" y="250" fill="#ffffff" /><rect width="20" height="10" x="210" y="250" fill="#ffffff" /><rect width="20" height="10" x="120" y="270" fill="#ffffff" /><rect width="20" height="10" x="180" y="270" fill="#ffffff" /><rect width="20" height="10" x="120" y="280" fill="#ffffff" /><rect width="20" height="10" x="180" y="280" fill="#ffffff" /><rect width="20" height="10" x="90" y="300" fill="#ffffff" /><rect width="20" height="10" x="150" y="300" fill="#ffffff" /><rect width="20" height="10" x="210" y="300" fill="#ffffff" /><rect width="20" height="10" x="90" y="310" fill="#ffffff" /><rect width="20" height="10" x="150" y="310" fill="#ffffff" /><rect width="20" height="10" x="210" y="310" fill="#ffffff" /></svg>