<svg width="320" height="320" viewBox="0 0 320 320" xmlns="http://www.w3.org/2000/svg" shape-rendering="crispEdges"><rect width="100%" height="100%" fill="none" /><rect width="20" height="10" x="90" y="210" fill="#abf131" /><rect width="20" height="10" x="110" y="210" fill="#2b83f6" /><rect width="20" height="10" x="130" y="210" fill="#fb4694" /><rect width="20" height="10" x="150" y="210" fill="#abf131" /><rect width="20" height="10" x="170" y="210" fill="#2b83f6" /><rect width="20" height="10" x="190" y="210" fill="#fb4694" /><rect width="20" height="10" x="210" y="210" fill="#abf131" /><rect width="20" height="10" x="90" y="220" fill="#abf131" /><rect width="20" height="10" x="110" y="220" fill="#2b83f6" /><rect width="20" height="10" x="130" y="220" fill="#fb4694" /><rect width="20" height="10" x="150" y="220" fill="#abf131" /><rect width="20" height="10" x="170" y="220" fill="#2b83f6" /><rect width="20" height="10" x="190" y="220" fill="#fb4694" /><rect width="20" height="10" x="210" y="220" fill="#abf131" /><rect width="20" height="10" x="90" y="230" fill="#fb4694" /><rect width="20" height="10" x="110" y="230" fill="#abf131" /><rect width="20" height="10" x="130" y="230" fill="#2b83f6" /><rect width="20" height="10" x="150" y="230" fill="#fb4694" /><rect width="20" height="10" x="170" y="230" fill="#abf131" /><rect width="20" height="10" x="190" y="230" fill="#2b83f6" /><rect width="20" height="10" x="210" y="230" fill="#fb4694" /><rect width="20" height="10" x="90" y="240" fill="#fb4694" /><rect width="20" height="10" x="110" y="240" fill="#abf131" /><rect width="20" height="10" x="130" y="240" fill="#2b83f6" /><rect width="20" height="10" x="150" y="240" fill="#fb4694" /><rect width="20" height="10" x="170" y="240" fill="#abf131" /><rect width="20" height="10" x="190" y="240" fill="#2b83f6" /><rect width="20" height="10" x="210" y="240" fill="#fb4694" /><rect width="20" height="10" x="90" y="250" fill="#2b83f6" /><rect width="10" height="10" x="120" y="250" fill="#fb4694" /><rect width="20" height="10" x="130" y="250" fill="#abf131" /><rect width="20" height="10" x="150" y="250" fill="#2b83f6" /><rect width="20" height="10" x="170" y="250" fill="#fb4694" /><rect width="20" height="10" x="190" y="250" fill="#abf131" /><rect width="20" height="10" x="210" y="250" fill="#2b83f6" /><rect width="20" height="10" x="90" y="260" fill="#2b83f6" /><rect width="10" height="10" x="120" y="260" fill="#fb4694" /><rect width="20" height="10" x="130" y="260" fill="#abf131" /><rect width="20" height="10" x="150" y="260" fill="#2b83f6" /><rect width="20" height="10" x="170" y="260" fill="#fb4694" /><rect width="20" height="10" x="190" y="260" fill="#abf131" /><rect width="20" height="10" x="210" y="260" fill="#2b83f6" /><rect width="20" height="10" x="90" y="270" fill="#abf131" /><rect width="10" height="10" x="120" y="270" fill="#2b83f6" /><rect width="20" height="10" x="130" y="270" fill="#fb4694" /><rect width="20" height="10" x="150" y="270" fill="#abf131" /><rect width="20" height="10" x="170" y="270" fill="#2b83f6" /><rect width="20" height="10" x="190" y="270" fill="#fb4694" /><rect width="20" height="10" x="210" y="270" fill="#abf131" /><rect width="20" height="10" x="90" y="280" fill="#abf131" /><rect width="10" height="10" x="120" y="280" fill="#2b83f6" /><rect width="20" height="10" x="130" y="280" fill="#fb4694" /><rect width="20" height="10" x="150" y="280" fill="#abf131" /><rect width="20" height="10" x="170" y="280" fill="#2b83f6" /><rect width="20" height="10" x="190" y="280" fill="#fb4694" /><rect width="20" height="10" x="210" y="280" fill="#abf131" /><rect width="20" height="10" x="90" y="290" fill="#fb4694" /><rect width="10" height="10" x="120" y="290" fill="#abf131" /><rect width="20" height="10" x="130" y="290" fill="#2b83f6" /><rect width="20" height="10" x="150" y="290" fill="#fb4694" /><rect width="20" height="10" x="170" y="290" fill="#abf131" /><rect width="20" height="10" x="190" y="290" fill="#2b83f6" /><rect width="20" height="10" x="210" y="290" fill="#fb4694" /><rect width="20" height="10" x="90" y="300" fill="#fb4694" /><rect width="10" height="10" x="120" y="300" fill="#abf131" /><rect width="20" height="10" x="130" y="300" fill="#2b83f6" /><rect width="20" height="10" x="150" y="300" fill="#fb4694" /><rect width="20" height="10" x="170" y="300" fill="#abf131" /><rect width="20" height="10" x="190" y="300" fill="#2b83f6" /><rect width="20" height="10" x="210" y="300" fill="#fb4694" /><rect width="20" height="10" x="90" y="310" fill="#2b83f6" /><rect width="10" height="10" x="120" y="310" fill="#fb4694" /><rect width="20" height="10" x="130" y="310" fill="#abf131" /><rect width="20" height="10" x="150" y="310" fill="#2b83f6" /><rect width="20" height="10" x="170" y="310" fill="#fb4694" /><rect width="20" height="10" x="190" y="310" fill="#abf131" /><rect width="20" height="10" x="210" y="310" fill="#2b83f6" /></svg>