<svg width="320" height="320" viewBox="0 0 320 320" xmlns="http://www.w3.org/2000/svg" shape-rendering="crispEdges"><rect width="100%" height="100%" fill="none" /><rect width="10" height="10" x="180" y="240" fill="#fff0ee" /><rect width="30" height="10" x="140" y="250" fill="#fff0ee" /><rect width="10" height="10" x="170" y="250" fill="#000000" /><rect width="10" height="10" x="180" y="250" fill="#fff0ee" /><rect width="10" height="10" x="190" y="250" fill="#f38b7c" /><rect width="10" height="10" x="130" y="260" fill="#fff0ee" /><rect width="10" height="10" x="150" y="260" fill="#fff0ee" /><rect width="10" height="10" x="160" y="260" fill="#000000" /><rect width="20" height="10" x="170" y="260" fill="#fff0ee" /><rect width="10" height="10" x="130" y="270" fill="#fff0ee" /><rect width="10" height="10" x="150" y="270" fill="#fff0ee" /><rect width="20" height="10" x="160" y="270" fill="#f38b7c" /><rect width="10" height="10" x="180" y="270" fill="#fff0ee" /><rect width="10" height="10" x="150" y="280" fill="#fff0ee" /><rect width="10" height="10" x="180" y="280" fill="#fff0ee" /></svg>