<svg width="320" height="320" viewBox="0 0 320 320" xmlns="http://www.w3.org/2000/svg" shape-rendering="crispEdges"><rect width="100%" height="100%" fill="none" /><rect width="10" height="10" x="110" y="210" fill="#feb9d5" /><rect width="10" height="10" x="140" y="210" fill="#feb9d5" /><rect width="10" height="10" x="170" y="210" fill="#feb9d5" /><rect width="10" height="10" x="200" y="210" fill="#feb9d5" /><rect width="10" height="10" x="90" y="220" fill="#feb9d5" /><rect width="10" height="10" x="120" y="220" fill="#feb9d5" /><rect width="10" height="10" x="150" y="220" fill="#feb9d5" /><rect width="10" height="10" x="180" y="220" fill="#feb9d5" /><rect width="10" height="10" x="210" y="220" fill="#feb9d5" /><rect width="10" height="10" x="100" y="230" fill="#feb9d5" /><rect width="10" height="10" x="130" y="230" fill="#feb9d5" /><rect width="10" height="10" x="160" y="230" fill="#feb9d5" /><rect width="10" height="10" x="190" y="230" fill="#feb9d5" /><rect width="10" height="10" x="220" y="230" fill="#feb9d5" /><rect width="10" height="10" x="110" y="240" fill="#feb9d5" /><rect width="10" height="10" x="140" y="240" fill="#feb9d5" /><rect width="10" height="10" x="170" y="240" fill="#feb9d5" /><rect width="10" height="10" x="200" y="240" fill="#feb9d5" /><rect width="10" height="10" x="90" y="250" fill="#feb9d5" /><rect width="10" height="10" x="120" y="250" fill="#feb9d5" /><rect width="10" height="10" x="150" y="250" fill="#feb9d5" /><rect width="10" height="10" x="180" y="250" fill="#feb9d5" /><rect width="10" height="10" x="210" y="250" fill="#feb9d5" /><rect width="10" height="10" x="100" y="260" fill="#feb9d5" /><rect width="10" height="10" x="130" y="260" fill="#feb9d5" /><rect width="10" height="10" x="160" y="260" fill="#feb9d5" /><rect width="10" height="10" x="190" y="260" fill="#feb9d5" /><rect width="10" height="10" x="220" y="260" fill="#feb9d5" /><rect width="10" height="10" x="140" y="270" fill="#feb9d5" /><rect width="10" height="10" x="170" y="270" fill="#feb9d5" /><rect width="10" height="10" x="200" y="270" fill="#feb9d5" /><rect width="10" height="10" x="90" y="280" fill="#feb9d5" /><rect width="10" height="10" x="120" y="280" fill="#feb9d5" /><rect width="10" height="10" x="150" y="280" fill="#feb9d5" /><rect width="10" height="10" x="180" y="280" fill="#feb9d5" /><rect width="10" height="10" x="210" y="280" fill="#feb9d5" /><rect width="10" height="10" x="100" y="290" fill="#feb9d5" /><rect width="10" height="10" x="130" y="290" fill="#feb9d5" /><rect width="10" height="10" x="160" y="290" fill="#feb9d5" /><rect width="10" height="10" x="190" y="290" fill="#feb9d5" /><rect width="10" height="10" x="220" y="290" fill="#feb9d5" /><rect width="10" height="10" x="140" y="300" fill="#feb9d5" /><rect width="10" height="10" x="170" y="300" fill="#feb9d5" /><rect width="10" height="10" x="200" y="300" fill="#feb9d5" /><rect width="10" height="10" x="90" y="310" fill="#feb9d5" /><rect width="10" height="10" x="120" y="310" fill="#feb9d5" /><rect width="10" height="10" x="150" y="310" fill="#feb9d5" /><rect width="10" height="10" x="180" y="310" fill="#feb9d5" /><rect width="10" height="10" x="210" y="310" fill="#feb9d5" /></svg>